<svg width="320" height="90" viewBox="0 0 320 90" fill="none" xmlns="http://www.w3.org/2000/svg">
<path d="M77.5 65.39V53.522L104.676 14.65H121.102V52.662H128.154V65.39H121.102V76.57H106.396V65.39H77.5ZM107.428 30.818L92.98 52.662H107.428V30.818Z" fill="#C1FBED"/>
<path d="M135.357 44.32C135.357 34.4587 137.249 26.69 141.033 21.014C144.875 15.338 151.038 12.5 159.523 12.5C168.009 12.5 174.143 15.338 177.927 21.014C181.769 26.69 183.689 34.4587 183.689 44.32C183.689 54.296 181.769 62.122 177.927 67.798C174.143 73.474 168.009 76.312 159.523 76.312C151.038 76.312 144.875 73.474 141.033 67.798C137.249 62.122 135.357 54.296 135.357 44.32ZM169.241 44.32C169.241 38.5293 168.611 34.086 167.349 30.99C166.088 27.8367 163.479 26.26 159.523 26.26C155.567 26.26 152.959 27.8367 151.697 30.99C150.436 34.086 149.805 38.5293 149.805 44.32C149.805 48.2187 150.035 51.458 150.493 54.038C150.952 56.5607 151.869 58.6247 153.245 60.23C154.679 61.778 156.771 62.552 159.523 62.552C162.275 62.552 164.339 61.778 165.715 60.23C167.149 58.6247 168.095 56.5607 168.553 54.038C169.012 51.458 169.241 48.2187 169.241 44.32Z" fill="#C1FBED"/>
<path d="M191.803 65.39V53.522L218.979 14.65H235.405V52.662H242.457V65.39H235.405V76.57H220.699V65.39H191.803ZM221.731 30.818L207.283 52.662H221.731V30.818Z" fill="#C1FBED"/>
<path fill-rule="evenodd" clip-rule="evenodd" d="M159.523 13C159.169 13 158.819 13.005 158.473 13.015C158.197 13.023 157.967 12.8057 157.959 12.5297C157.951 12.2537 158.168 12.0234 158.445 12.0154C158.8 12.0051 159.16 12 159.523 12C159.886 12 160.244 12.0051 160.598 12.0153C160.874 12.0233 161.092 12.2535 161.084 12.5296C161.076 12.8056 160.846 13.0229 160.57 13.0149C160.225 13.005 159.876 13 159.523 13ZM162.2 12.5961C162.226 12.3211 162.469 12.119 162.744 12.1446C163.476 12.2128 164.188 12.3051 164.881 12.4217C165.154 12.4675 165.337 12.7254 165.291 12.9977C165.246 13.2701 164.988 13.4537 164.715 13.4079C164.048 13.2955 163.36 13.2063 162.652 13.1403C162.377 13.1147 162.174 12.871 162.2 12.5961ZM156.836 12.5968C156.862 12.8717 156.66 13.1154 156.385 13.1411C155.675 13.2074 154.984 13.2971 154.314 13.41C154.042 13.4559 153.784 13.2723 153.738 13C153.692 12.7277 153.876 12.4697 154.148 12.4239C154.844 12.3067 155.558 12.2139 156.292 12.1454C156.567 12.1198 156.81 12.3218 156.836 12.5968ZM166.387 13.228C166.456 12.9605 166.728 12.7993 166.996 12.868C167.709 13.051 168.399 13.2632 169.066 13.5046C169.326 13.5985 169.46 13.8852 169.366 14.1449C169.272 14.4045 168.986 14.5389 168.726 14.4449C168.09 14.2148 167.43 14.012 166.747 13.8366C166.479 13.7679 166.318 13.4955 166.387 13.228ZM152.636 13.2318C152.705 13.4992 152.543 13.7717 152.276 13.8404C151.59 14.0163 150.929 14.2197 150.29 14.4504C150.03 14.5443 149.744 14.4098 149.65 14.1501C149.556 13.8904 149.691 13.6038 149.95 13.5099C150.62 13.268 151.312 13.0553 152.027 12.8718C152.295 12.8031 152.567 12.9643 152.636 13.2318ZM104.266 14.3635C104.36 14.2297 104.513 14.15 104.676 14.15H105.703C105.979 14.15 106.203 14.3739 106.203 14.65C106.203 14.9261 105.979 15.15 105.703 15.15H104.937L104.52 15.7463C104.361 15.9726 104.05 16.0278 103.823 15.8696C103.597 15.7114 103.542 15.3997 103.7 15.1733L104.266 14.3635ZM107.256 14.65C107.256 14.3739 107.48 14.15 107.756 14.15H109.809C110.085 14.15 110.309 14.3739 110.309 14.65C110.309 14.9261 110.085 15.15 109.809 15.15H107.756C107.48 15.15 107.256 14.9261 107.256 14.65ZM111.362 14.65C111.362 14.3739 111.586 14.15 111.862 14.15H113.916C114.192 14.15 114.416 14.3739 114.416 14.65C114.416 14.9261 114.192 15.15 113.916 15.15H111.862C111.586 15.15 111.362 14.9261 111.362 14.65ZM115.469 14.65C115.469 14.3739 115.693 14.15 115.969 14.15H118.022C118.298 14.15 118.522 14.3739 118.522 14.65C118.522 14.9261 118.298 15.15 118.022 15.15H115.969C115.693 15.15 115.469 14.9261 115.469 14.65ZM119.575 14.65C119.575 14.3739 119.799 14.15 120.075 14.15H121.102C121.378 14.15 121.602 14.3739 121.602 14.65V15.6003C121.602 15.8764 121.378 16.1003 121.102 16.1003C120.826 16.1003 120.602 15.8764 120.602 15.6003V15.15H120.075C119.799 15.15 119.575 14.9261 119.575 14.65ZM218.569 14.3635C218.662 14.2297 218.815 14.15 218.979 14.15H220.005C220.282 14.15 220.505 14.3739 220.505 14.65C220.505 14.9261 220.282 15.15 220.005 15.15H219.239L218.822 15.7463C218.664 15.9726 218.352 16.0278 218.126 15.8696C217.9 15.7114 217.845 15.3997 218.003 15.1733L218.569 14.3635ZM221.559 14.65C221.559 14.3739 221.782 14.15 222.059 14.15H224.112C224.388 14.15 224.612 14.3739 224.612 14.65C224.612 14.9261 224.388 15.15 224.112 15.15H222.059C221.782 15.15 221.559 14.9261 221.559 14.65ZM225.665 14.65C225.665 14.3739 225.889 14.15 226.165 14.15H228.218C228.495 14.15 228.718 14.3739 228.718 14.65C228.718 14.9261 228.495 15.15 228.218 15.15H226.165C225.889 15.15 225.665 14.9261 225.665 14.65ZM229.772 14.65C229.772 14.3739 229.995 14.15 230.272 14.15H232.325C232.601 14.15 232.825 14.3739 232.825 14.65C232.825 14.9261 232.601 15.15 232.325 15.15H230.272C229.995 15.15 229.772 14.9261 229.772 14.65ZM233.878 14.65C233.878 14.3739 234.102 14.15 234.378 14.15H235.405C235.681 14.15 235.905 14.3739 235.905 14.65V15.6003C235.905 15.8764 235.681 16.1003 235.405 16.1003C235.129 16.1003 234.905 15.8764 234.905 15.6003V15.15H234.378C234.102 15.15 233.878 14.9261 233.878 14.65ZM170.398 14.5797C170.519 14.3315 170.818 14.2286 171.066 14.3497C171.725 14.6714 172.358 15.0262 172.963 15.4143C173.196 15.5633 173.263 15.8726 173.114 16.105C172.965 16.3375 172.656 16.4052 172.423 16.2562C171.851 15.8894 171.253 15.5534 170.628 15.2483C170.379 15.1272 170.276 14.8278 170.398 14.5797ZM148.612 14.5868C148.733 14.8351 148.63 15.1343 148.381 15.2552C147.754 15.5605 147.153 15.8967 146.577 16.2637C146.345 16.4122 146.036 16.3438 145.887 16.111C145.739 15.8782 145.807 15.5691 146.04 15.4206C146.648 15.0326 147.283 14.6778 147.944 14.356C148.192 14.2352 148.491 14.3385 148.612 14.5868ZM103.264 16.6697C103.49 16.8279 103.546 17.1397 103.387 17.366L102.255 18.9856C102.097 19.212 101.785 19.2672 101.559 19.1089C101.332 18.9507 101.277 18.639 101.435 18.4127L102.568 16.793C102.726 16.5667 103.038 16.5115 103.264 16.6697ZM217.567 16.6697C217.793 16.8279 217.848 17.1397 217.69 17.366L216.558 18.9856C216.399 19.212 216.088 19.2672 215.861 19.1089C215.635 18.9507 215.58 18.639 215.738 18.4127L216.87 16.793C217.029 16.5667 217.34 16.5115 217.567 16.6697ZM174.019 16.7646C174.195 16.5518 174.51 16.522 174.723 16.6979C175.281 17.1599 175.812 17.6558 176.314 18.1853C176.504 18.3857 176.495 18.7022 176.295 18.8922C176.095 19.0822 175.778 19.0737 175.588 18.8734C175.114 18.3729 174.613 17.9047 174.085 17.4686C173.873 17.2926 173.843 16.9774 174.019 16.7646ZM144.975 16.7719C145.15 16.9854 145.119 17.3004 144.906 17.4756C144.375 17.9114 143.87 18.3792 143.392 18.8791C143.201 19.0786 142.884 19.0854 142.685 18.8944C142.485 18.7034 142.478 18.3869 142.669 18.1874C143.176 17.6589 143.71 17.164 144.271 16.7028C144.485 16.5275 144.8 16.5585 144.975 16.7719ZM121.102 17.0009C121.378 17.0009 121.602 17.2248 121.602 17.5009V19.4015C121.602 19.6776 121.378 19.9015 121.102 19.9015C120.826 19.9015 120.602 19.6776 120.602 19.4015V17.5009C120.602 17.2248 120.826 17.0009 121.102 17.0009ZM235.405 17.0009C235.681 17.0009 235.905 17.2248 235.905 17.5009V19.4015C235.905 19.6776 235.681 19.9015 235.405 19.9015C235.129 19.9015 234.905 19.6776 234.905 19.4015V17.5009C234.905 17.2248 235.129 17.0009 235.405 17.0009ZM177.016 19.7482C177.237 19.5827 177.55 19.6277 177.716 19.8487C177.931 20.1369 178.141 20.4328 178.343 20.7366C178.535 21.0198 178.722 21.3081 178.904 21.6014C179.05 21.836 178.977 22.1442 178.743 22.2899C178.508 22.4356 178.2 22.3635 178.054 22.129C177.878 21.8457 177.698 21.5675 177.513 21.2942L177.511 21.2914C177.319 21.0026 177.12 20.7215 176.915 20.4482C176.75 20.2271 176.795 19.9138 177.016 19.7482ZM141.955 19.7515C142.175 19.9184 142.218 20.2321 142.051 20.452C141.844 20.7247 141.643 21.0051 141.448 21.2931C141.266 21.5666 141.088 21.8452 140.914 22.1288C140.77 22.3643 140.463 22.4385 140.227 22.2944C139.991 22.1504 139.917 21.8426 140.061 21.607C140.242 21.3118 140.427 21.0217 140.617 20.7367L140.619 20.7338C140.824 20.4306 141.036 20.1352 141.254 19.8475C141.421 19.6275 141.735 19.5845 141.955 19.7515ZM100.999 19.909C101.226 20.0673 101.281 20.379 101.123 20.6053L99.9903 22.225C99.8321 22.4513 99.5203 22.5065 99.294 22.3483C99.0677 22.1901 99.0125 21.8783 99.1707 21.652L100.303 20.0323C100.461 19.806 100.773 19.7508 100.999 19.909ZM215.302 19.909C215.528 20.0673 215.584 20.379 215.425 20.6053L214.293 22.225C214.135 22.4513 213.823 22.5065 213.597 22.3483C213.37 22.1901 213.315 21.8783 213.473 21.652L214.606 20.0323C214.764 19.806 215.076 19.7508 215.302 19.909ZM121.102 20.8021C121.378 20.8021 121.602 21.026 121.602 21.3021V23.2027C121.602 23.4788 121.378 23.7027 121.102 23.7027C120.826 23.7027 120.602 23.4788 120.602 23.2027V21.3021C120.602 21.026 120.826 20.8021 121.102 20.8021ZM235.405 20.8021C235.681 20.8021 235.905 21.026 235.905 21.3021V23.2027C235.905 23.4788 235.681 23.7027 235.405 23.7027C235.129 23.7027 234.905 23.4788 234.905 23.2027V21.3021C234.905 21.026 235.129 20.8021 235.405 20.8021ZM98.7347 23.1484C98.961 23.3066 99.0162 23.6183 98.858 23.8447L97.7256 25.4643C97.5674 25.6906 97.2557 25.7458 97.0294 25.5876C96.803 25.4294 96.7478 25.1177 96.9061 24.8913L98.0384 23.2717C98.1966 23.0454 98.5083 22.9902 98.7347 23.1484ZM213.037 23.1484C213.264 23.3066 213.319 23.6183 213.161 23.8447L212.028 25.4643C211.87 25.6906 211.558 25.7458 211.332 25.5876C211.106 25.4294 211.051 25.1177 211.209 24.8913L212.341 23.2717C212.499 23.0454 212.811 22.9902 213.037 23.1484ZM179.253 23.1852C179.497 23.0574 179.799 23.1523 179.927 23.397C180.242 23.9993 180.539 24.62 180.818 25.2591C180.928 25.5121 180.813 25.8069 180.56 25.9175C180.307 26.0281 180.012 25.9127 179.902 25.6596C179.631 25.041 179.344 24.4411 179.041 23.8598C178.913 23.615 179.008 23.313 179.253 23.1852ZM139.724 23.191C139.97 23.3172 140.067 23.6186 139.941 23.8642C139.641 24.4465 139.358 25.0475 139.092 25.6673C138.983 25.921 138.689 26.0381 138.435 25.929C138.181 25.8199 138.064 25.5258 138.173 25.2721C138.449 24.632 138.741 24.0103 139.051 23.4071C139.177 23.1615 139.479 23.0647 139.724 23.191ZM121.102 24.6033C121.378 24.6033 121.602 24.8272 121.602 25.1033V27.0039C121.602 27.28 121.378 27.5039 121.102 27.5039C120.826 27.5039 120.602 27.28 120.602 27.0039V25.1033C120.602 24.8272 120.826 24.6033 121.102 24.6033ZM235.405 24.6033C235.681 24.6033 235.905 24.8272 235.905 25.1033V27.0039C235.905 27.28 235.681 27.5039 235.405 27.5039C235.129 27.5039 234.905 27.28 234.905 27.0039V25.1033C234.905 24.8272 235.129 24.6033 235.405 24.6033ZM158.254 25.8162C158.663 25.7787 159.086 25.76 159.523 25.76C159.961 25.76 160.384 25.7787 160.792 25.8162C161.067 25.8415 161.27 26.085 161.245 26.3599C161.219 26.6349 160.976 26.8373 160.701 26.812C160.325 26.7774 159.932 26.76 159.523 26.76C159.114 26.76 158.722 26.7774 158.345 26.812C158.071 26.8373 157.827 26.6349 157.802 26.3599C157.776 26.085 157.979 25.8415 158.254 25.8162ZM96.47 26.3877C96.6963 26.5459 96.7515 26.8577 96.5933 27.084L95.461 28.7037C95.3027 28.93 94.991 28.9852 94.7647 28.827C94.5384 28.6687 94.4832 28.357 94.6414 28.1307L95.7737 26.511C95.9319 26.2847 96.2437 26.2295 96.47 26.3877ZM210.773 26.3877C210.999 26.5459 211.054 26.8577 210.896 27.084L209.764 28.7037C209.605 28.93 209.294 28.9852 209.067 28.827C208.841 28.6687 208.786 28.357 208.944 28.1307L210.076 26.511C210.235 26.2847 210.546 26.2295 210.773 26.3877ZM156.382 26.6532C156.476 26.9131 156.341 27.1995 156.081 27.2928C155.33 27.5625 154.674 27.9332 154.109 28.4029C153.897 28.5794 153.582 28.5503 153.405 28.338C153.229 28.1256 153.258 27.8104 153.47 27.6338C154.131 27.0847 154.89 26.658 155.743 26.3517C156.003 26.2583 156.289 26.3933 156.382 26.6532ZM162.664 26.6532C162.757 26.3933 163.044 26.2583 163.303 26.3517C164.156 26.658 164.916 27.0847 165.576 27.6338C165.789 27.8104 165.818 28.1256 165.641 28.338C165.465 28.5503 165.149 28.5794 164.937 28.4029C164.372 27.9332 163.716 27.5625 162.965 27.2928C162.706 27.1995 162.571 26.9131 162.664 26.6532ZM180.942 26.8743C181.201 26.7799 181.488 26.9137 181.582 27.1732C181.813 27.8084 182.029 28.4598 182.229 29.1275C182.308 29.392 182.158 29.6707 181.894 29.75C181.629 29.8293 181.351 29.6791 181.271 29.4146C181.076 28.7648 180.867 28.1316 180.643 27.515C180.548 27.2555 180.682 26.9686 180.942 26.8743ZM138.059 26.8855C138.319 26.9786 138.455 27.2648 138.362 27.5248C138.141 28.1417 137.935 28.7752 137.743 29.4253C137.665 29.6902 137.387 29.8416 137.122 29.7635C136.857 29.6854 136.706 29.4073 136.784 29.1425C136.981 28.4747 137.193 27.8232 137.42 27.1878C137.513 26.9278 137.799 26.7925 138.059 26.8855ZM121.102 28.4045C121.378 28.4045 121.602 28.6284 121.602 28.9045V30.8051C121.602 31.0812 121.378 31.3051 121.102 31.3051C120.826 31.3051 120.602 31.0812 120.602 30.8051V28.9045C120.602 28.6284 120.826 28.4045 121.102 28.4045ZM235.405 28.4045C235.681 28.4045 235.905 28.6284 235.905 28.9045V30.8051C235.905 31.0812 235.681 31.3051 235.405 31.3051C235.129 31.3051 234.905 31.0812 234.905 30.8051V28.9045C234.905 28.6284 235.129 28.4045 235.405 28.4045ZM152.479 29.4556C152.718 29.5937 152.8 29.8995 152.662 30.1386C152.477 30.4595 152.31 30.805 152.161 31.1757L152.16 31.1787C152.027 31.5045 151.902 31.8467 151.783 32.2055C151.696 32.4676 151.413 32.6096 151.151 32.5227C150.888 32.4357 150.746 32.1528 150.833 31.8907C150.959 31.5126 151.092 31.1498 151.234 30.8025M166.567 29.4556C166.806 29.3174 167.112 29.3992 167.25 29.6383C167.461 30.0028 167.648 30.3911 167.813 30.8028C167.954 31.1501 168.088 31.5127 168.213 31.8907C168.3 32.1528 168.158 32.4357 167.896 32.5227C167.634 32.6096 167.351 32.4676 167.264 32.2055C167.145 31.8467 167.019 31.5045 166.886 31.1787L166.885 31.1757C166.737 30.805 166.57 30.4595 166.384 30.1386C166.246 29.8995 166.328 29.5937 166.567 29.4556ZM94.2053 29.627C94.4316 29.7853 94.4868 30.097 94.3286 30.3233L93.1963 31.943C93.0381 32.1693 92.7263 32.2245 92.5 32.0663C92.2737 31.9081 92.2185 31.5963 92.3767 31.37L93.5091 29.7503C93.6673 29.524 93.979 29.4688 94.2053 29.627ZM208.508 29.627C208.734 29.7853 208.79 30.097 208.631 30.3233L207.499 31.943C207.341 32.1693 207.029 32.2245 206.803 32.0663C206.576 31.9081 206.521 31.5963 206.679 31.37L207.812 29.7503C207.97 29.524 208.282 29.4688 208.508 29.627ZM107.572 30.3392C107.783 30.4028 107.928 30.5973 107.928 30.818V31.9102C107.928 32.1863 107.704 32.4102 107.428 32.4102C107.217 32.4102 107.037 32.2799 106.963 32.0955C106.852 32.1071 106.737 32.0816 106.636 32.0152C106.406 31.8628 106.343 31.5526 106.495 31.3223L107.011 30.5422C107.133 30.3581 107.361 30.2756 107.572 30.3392ZM221.875 30.3392C222.086 30.4028 222.231 30.5973 222.231 30.818V31.9102C222.231 32.1863 222.007 32.4102 221.731 32.4102C221.52 32.4102 221.34 32.2799 221.266 32.0955C221.155 32.1071 221.039 32.0816 220.939 32.0152C220.709 31.8628 220.645 31.5526 220.798 31.3223L221.314 30.5422C221.435 30.3581 221.663 30.2756 221.875 30.3392ZM182.163 30.7447C182.431 30.6794 182.702 30.8439 182.767 31.1122C182.927 31.7667 183.073 32.4355 183.205 33.1184C183.258 33.3895 183.081 33.6519 182.81 33.7045C182.539 33.7572 182.276 33.5801 182.224 33.309C182.094 32.641 181.951 31.9876 181.796 31.3489C181.73 31.0806 181.895 30.8101 182.163 30.7447ZM136.858 30.7569C137.126 30.8213 137.292 31.0911 137.227 31.3597C137.074 31.9982 136.934 32.6514 136.806 33.3192C136.755 33.5904 136.493 33.7683 136.221 33.7166C135.95 33.6648 135.772 33.4029 135.824 33.1317C135.954 32.4491 136.098 31.7807 136.255 31.1266C136.319 30.858 136.589 30.6925 136.858 30.7569ZM121.102 32.2057C121.378 32.2057 121.602 32.4296 121.602 32.7057V34.6063C121.602 34.8824 121.378 35.1063 121.102 35.1063C120.826 35.1063 120.602 34.8824 120.602 34.6063V32.7057C120.602 32.4296 120.826 32.2057 121.102 32.2057ZM235.405 32.2057C235.681 32.2057 235.905 32.4296 235.905 32.7057V34.6063C235.905 34.8824 235.681 35.1063 235.405 35.1063C235.129 35.1063 234.905 34.8824 234.905 34.6063V32.7057C234.905 32.4296 235.129 32.2057 235.405 32.2057ZM106.156 32.7414C106.386 32.8937 106.449 33.2039 106.297 33.4343L105.265 34.9946C105.113 35.2249 104.802 35.2881 104.572 35.1358C104.342 34.9834 104.279 34.6732 104.431 34.4429L105.463 32.8826C105.615 32.6523 105.926 32.5891 106.156 32.7414ZM220.459 32.7414C220.689 32.8937 220.752 33.2039 220.6 33.4343L219.568 34.9946C219.415 35.2249 219.105 35.2881 218.875 35.1358C218.645 34.9834 218.581 34.6732 218.734 34.4429L219.766 32.8826C219.918 32.6523 220.228 32.5891 220.459 32.7414ZM91.9407 32.8664C92.167 33.0246 92.2222 33.3363 92.064 33.5627L90.9316 35.1823C90.7734 35.4086 90.4617 35.4638 90.2354 35.3056C90.009 35.1474 89.9538 34.8357 90.1121 34.6094L91.2444 32.9897C91.4026 32.7634 91.7143 32.7082 91.9407 32.8664ZM206.243 32.8664C206.47 33.0246 206.525 33.3363 206.367 33.5627L205.234 35.1823C205.076 35.4086 204.764 35.4638 204.538 35.3056C204.312 35.1474 204.257 34.8357 204.415 34.6094L205.547 32.9897C205.705 32.7634 206.017 32.7082 206.243 32.8664ZM107.428 33.5946C107.704 33.5946 107.928 33.8185 107.928 34.0946V36.279C107.928 36.5551 107.704 36.779 107.428 36.779C107.152 36.779 106.928 36.5551 106.928 36.279V34.0946C106.928 33.8185 107.152 33.5946 107.428 33.5946ZM221.731 33.5946C222.007 33.5946 222.231 33.8185 222.231 34.0946V36.279C222.231 36.5551 222.007 36.779 221.731 36.779C221.455 36.779 221.231 36.5551 221.231 36.279V34.0946C221.231 33.8185 221.455 33.5946 221.731 33.5946ZM150.822 33.7364C151.092 33.7964 151.261 34.0636 151.201 34.3331C151.049 35.0173 150.916 35.7449 150.802 36.5164C150.762 36.7896 150.507 36.9784 150.234 36.938C149.961 36.8977 149.772 36.6436 149.813 36.3704C149.93 35.5775 150.067 34.8258 150.225 34.1157C150.285 33.8462 150.553 33.6763 150.822 33.7364ZM168.224 33.7364C168.494 33.6763 168.761 33.8462 168.821 34.1157C168.979 34.8258 169.117 35.5775 169.234 36.3704C169.274 36.6436 169.085 36.8977 168.812 36.938C168.539 36.9784 168.285 36.7896 168.244 36.5164C168.131 35.7449 167.997 35.0173 167.845 34.3331C167.785 34.0636 167.955 33.7964 168.224 33.7364ZM182.983 34.7193C183.257 34.6783 183.511 34.8665 183.552 35.1396C183.652 35.8048 183.74 36.4825 183.816 37.1726C183.847 37.447 183.649 37.6941 183.374 37.7245C183.1 37.7548 182.853 37.5569 182.822 37.2825C182.747 36.6048 182.661 35.94 182.563 35.288C182.522 35.0149 182.71 34.7603 182.983 34.7193ZM136.051 34.7293C136.324 34.7696 136.513 35.0237 136.472 35.2969C136.376 35.9484 136.291 36.6128 136.218 37.2899C136.188 37.5644 135.941 37.7627 135.667 37.7329C135.392 37.703 135.194 37.4562 135.224 37.1817C135.299 36.4924 135.385 35.8154 135.483 35.1509C135.523 34.8777 135.778 34.689 136.051 34.7293ZM104.092 35.862C104.322 36.0143 104.385 36.3245 104.233 36.5548L103.201 38.1151C103.049 38.3454 102.738 38.4087 102.508 38.2563C102.278 38.104 102.215 37.7938 102.367 37.5635L103.399 36.0032C103.551 35.7729 103.862 35.7096 104.092 35.862ZM218.395 35.862C218.625 36.0143 218.688 36.3245 218.536 36.5548L217.504 38.1151C217.351 38.3454 217.041 38.4087 216.811 38.2563C216.581 38.104 216.517 37.7938 216.67 37.5635L217.702 36.0032C217.854 35.7729 218.164 35.7096 218.395 35.862ZM121.102 36.0069C121.378 36.0069 121.602 36.2308 121.602 36.5069V38.4075C121.602 38.6836 121.378 38.9075 121.102 38.9075C120.826 38.9075 120.602 38.6836 120.602 38.4075V36.5069C120.602 36.2308 120.826 36.0069 121.102 36.0069ZM235.405 36.0069C235.681 36.0069 235.905 36.2308 235.905 36.5069V38.4075C235.905 38.6836 235.681 38.9075 235.405 38.9075C235.129 38.9075 234.905 38.6836 234.905 38.4075V36.5069C234.905 36.2308 235.129 36.0069 235.405 36.0069ZM89.676 36.1057C89.9023 36.2639 89.9575 36.5757 89.7993 36.802L88.667 38.4217C88.5087 38.648 88.197 38.7032 87.9707 38.545C87.7444 38.3867 87.6892 38.075 87.8474 37.8487L88.9797 36.229C89.1379 36.0027 89.4497 35.9475 89.676 36.1057ZM203.979 36.1057C204.205 36.2639 204.26 36.5757 204.102 36.802L202.97 38.4217C202.811 38.648 202.5 38.7032 202.273 38.545C202.047 38.3867 201.992 38.075 202.15 37.8487L203.282 36.229C203.441 36.0027 203.752 35.9475 203.979 36.1057ZM107.428 37.9634C107.704 37.9634 107.928 38.1873 107.928 38.4634V40.6478C107.928 40.9239 107.704 41.1478 107.428 41.1478C107.152 41.1478 106.928 40.9239 106.928 40.6478V38.4634C106.928 38.1873 107.152 37.9634 107.428 37.9634ZM221.731 37.9634C222.007 37.9634 222.231 38.1873 222.231 38.4634V40.6478C222.231 40.9239 222.007 41.1478 221.731 41.1478C221.455 41.1478 221.231 40.9239 221.231 40.6478V38.4634C221.231 38.1873 221.455 37.9634 221.731 37.9634ZM150.087 38.1864C150.362 38.2117 150.565 38.4552 150.539 38.7302C150.474 39.443 150.422 40.1862 150.384 40.9598C150.37 41.2356 150.136 41.4482 149.86 41.4346C149.584 41.421 149.371 41.1864 149.385 40.9106C149.424 40.1239 149.477 39.3664 149.544 38.6384C149.569 38.3634 149.812 38.161 150.087 38.1864ZM168.959 38.1864C169.234 38.161 169.477 38.3634 169.503 38.6384C169.57 39.3664 169.623 40.1239 169.661 40.9106C169.675 41.1864 169.462 41.421 169.187 41.4346C168.911 41.4482 168.676 41.2356 168.663 40.9598C168.624 40.1862 168.573 39.443 168.507 38.7302C168.482 38.4552 168.684 38.2117 168.959 38.1864ZM183.469 38.7496C183.744 38.7289 183.984 38.9354 184.005 39.2107C184.055 39.8805 184.095 40.5613 184.125 41.253C184.137 41.5289 183.923 41.7622 183.647 41.774C183.371 41.7858 183.138 41.5718 183.126 41.2959C183.096 40.6145 183.057 39.9444 183.008 39.2856C182.987 39.0102 183.193 38.7702 183.469 38.7496ZM135.574 38.7556C135.849 38.7759 136.056 39.0156 136.036 39.291C135.987 39.9492 135.948 40.6186 135.92 41.2993C135.908 41.5752 135.675 41.7894 135.399 41.7777C135.123 41.7661 134.909 41.533 134.92 41.2571C134.95 40.5662 134.989 39.8863 135.038 39.2174C135.059 38.942 135.298 38.7352 135.574 38.7556ZM102.028 38.9825C102.258 39.1349 102.321 39.4451 102.169 39.6754L101.137 41.2357C100.985 41.466 100.674 41.5292 100.444 41.3769C100.214 41.2246 100.151 40.9144 100.303 40.684L101.335 39.1237C101.487 38.8934 101.798 38.8302 102.028 38.9825ZM216.331 38.9825C216.561 39.1349 216.624 39.4451 216.472 39.6754L215.44 41.2357C215.287 41.466 214.977 41.5292 214.747 41.3769C214.517 41.2246 214.453 40.9144 214.606 40.684L215.638 39.1237C215.79 38.8934 216.1 38.8302 216.331 38.9825ZM87.4113 39.3451C87.6376 39.5033 87.6928 39.815 87.5346 40.0413L86.4023 41.661C86.2441 41.8873 85.9323 41.9425 85.706 41.7843C85.4797 41.6261 85.4245 41.3143 85.5827 41.088L86.715 39.4684C86.8733 39.242 87.185 39.1868 87.4113 39.3451ZM201.714 39.3451C201.94 39.5033 201.996 39.815 201.837 40.0413L200.705 41.661C200.547 41.8873 200.235 41.9425 200.009 41.7843C199.782 41.6261 199.727 41.3143 199.885 41.088L201.018 39.4684C201.176 39.242 201.488 39.1868 201.714 39.3451ZM121.102 39.8081C121.378 39.8081 121.602 40.032 121.602 40.3081V42.2087C121.602 42.4848 121.378 42.7087 121.102 42.7087C120.826 42.7087 120.602 42.4848 120.602 42.2087V40.3081C120.602 40.032 120.826 39.8081 121.102 39.8081ZM235.405 39.8081C235.681 39.8081 235.905 40.032 235.905 40.3081V42.2087C235.905 42.4848 235.681 42.7087 235.405 42.7087C235.129 42.7087 234.905 42.4848 234.905 42.2087V40.3081C234.905 40.032 235.129 39.8081 235.405 39.8081ZM99.9638 42.1031C100.194 42.2555 100.257 42.5657 100.105 42.796L99.073 44.3563C98.9207 44.5866 98.6105 44.6498 98.3802 44.4975C98.1498 44.3451 98.0866 44.0349 98.239 43.8046L99.271 42.2443C99.4233 42.014 99.7335 41.9508 99.9638 42.1031ZM214.267 42.1031C214.497 42.2555 214.56 42.5657 214.408 42.796L213.376 44.3563C213.223 44.5866 212.913 44.6498 212.683 44.4975C212.453 44.3451 212.389 44.0349 212.542 43.8046L213.574 42.2443C213.726 42.014 214.036 41.9508 214.267 42.1031ZM107.428 42.3322C107.704 42.3322 107.928 42.5561 107.928 42.8322V45.0166C107.928 45.2927 107.704 45.5166 107.428 45.5166C107.152 45.5166 106.928 45.2927 106.928 45.0166V42.8322C106.928 42.5561 107.152 42.3322 107.428 42.3322ZM221.731 42.3322C222.007 42.3322 222.231 42.5561 222.231 42.8322V45.0166C222.231 45.2927 222.007 45.5166 221.731 45.5166C221.455 45.5166 221.231 45.2927 221.231 45.0166V42.8322C221.231 42.5561 221.455 42.3322 221.731 42.3322ZM85.1467 42.5844C85.373 42.7426 85.4282 43.0543 85.27 43.2807L84.1376 44.9003C83.9794 45.1266 83.6677 45.1818 83.4413 45.0236C83.215 44.8654 83.1598 44.5537 83.318 44.3273L84.4504 42.7077C84.6086 42.4814 84.9203 42.4262 85.1467 42.5844ZM199.449 42.5844C199.676 42.7426 199.731 43.0543 199.573 43.2807L198.44 44.9003C198.282 45.1266 197.97 45.1818 197.744 45.0236C197.518 44.8654 197.463 44.5537 197.621 44.3273L198.753 42.7077C198.911 42.4814 199.223 42.4262 199.449 42.5844ZM149.821 42.6913C150.097 42.6954 150.317 42.9226 150.313 43.1987C150.308 43.5665 150.305 43.9403 150.305 44.32C150.305 44.7319 150.308 45.1363 150.313 45.5332C150.316 45.8094 150.096 46.0361 149.819 46.0397C149.543 46.0433 149.317 45.8223 149.313 45.5462C149.308 45.1448 149.305 44.7361 149.305 44.32C149.305 43.9355 149.308 43.5568 149.313 43.1839C149.318 42.9078 149.545 42.6872 149.821 42.6913ZM169.226 42.6913C169.502 42.6872 169.729 42.9078 169.733 43.1839C169.738 43.5568 169.741 43.9355 169.741 44.32C169.741 44.7361 169.739 45.1448 169.733 45.5462C169.73 45.8223 169.503 46.0433 169.227 46.0397C168.951 46.0361 168.73 45.8094 168.733 45.5332C168.739 45.1363 168.741 44.7319 168.741 44.32C168.741 43.9403 168.738 43.5665 168.733 43.1987C168.729 42.9226 168.949 42.6954 169.226 42.6913ZM183.675 42.8045C183.952 42.8007 184.178 43.0215 184.182 43.2976C184.187 43.6359 184.189 43.9767 184.189 44.32C184.189 44.6656 184.187 45.0087 184.182 45.3493C184.179 45.6254 183.952 45.8462 183.676 45.8425C183.4 45.8388 183.179 45.612 183.182 45.3359C183.187 44.9998 183.189 44.6612 183.189 44.32C183.189 43.9812 183.187 43.645 183.182 43.3113C183.179 43.0352 183.399 42.8083 183.675 42.8045ZM135.371 42.8057C135.647 42.8094 135.868 43.0363 135.864 43.3124C135.859 43.6457 135.857 43.9816 135.857 44.32C135.857 44.6608 135.859 44.9991 135.864 45.3347C135.868 45.6108 135.647 45.8376 135.371 45.8413C135.094 45.8449 134.868 45.6241 134.864 45.348C134.859 45.0078 134.857 44.6652 134.857 44.32C134.857 43.9772 134.859 43.6368 134.864 43.299C134.868 43.0228 135.095 42.802 135.371 42.8057ZM121.102 43.6093C121.378 43.6093 121.602 43.8332 121.602 44.1093V46.0099C121.602 46.2861 121.378 46.5099 121.102 46.5099C120.826 46.5099 120.602 46.2861 120.602 46.0099V44.1093C120.602 43.8332 120.826 43.6093 121.102 43.6093ZM235.405 43.6093C235.681 43.6093 235.905 43.8332 235.905 44.1093V46.0099C235.905 46.2861 235.681 46.5099 235.405 46.5099C235.129 46.5099 234.905 46.2861 234.905 46.0099V44.1093C234.905 43.8332 235.129 43.6093 235.405 43.6093ZM97.8998 45.2237C98.1302 45.376 98.1934 45.6862 98.041 45.9165L97.009 47.4768C96.8567 47.7072 96.5465 47.7704 96.3162 47.618C96.0859 47.4657 96.0226 47.1555 96.175 46.9252L97.207 45.3649C97.3593 45.1346 97.6695 45.0714 97.8998 45.2237ZM212.203 45.2237C212.433 45.376 212.496 45.6862 212.344 45.9165L211.312 47.4768C211.159 47.7072 210.849 47.7704 210.619 47.618C210.389 47.4657 210.325 47.1555 210.478 46.9252L211.51 45.3649C211.662 45.1346 211.972 45.0714 212.203 45.2237ZM82.882 45.8237C83.1083 45.9819 83.1635 46.2937 83.0053 46.52L81.873 48.1397C81.7147 48.366 81.403 48.4212 81.1767 48.263C80.9504 48.1047 80.8952 47.793 81.0534 47.5667L82.1857 45.947C82.3439 45.7207 82.6557 45.6655 82.882 45.8237ZM197.185 45.8237C197.411 45.9819 197.466 46.2937 197.308 46.52L196.176 48.1397C196.017 48.366 195.706 48.4212 195.479 48.263C195.253 48.1047 195.198 47.793 195.356 47.5667L196.488 45.947C196.647 45.7207 196.958 45.6655 197.185 45.8237ZM107.428 46.701C107.704 46.701 107.928 46.9249 107.928 47.201V49.3854C107.928 49.6615 107.704 49.8854 107.428 49.8854C107.152 49.8854 106.928 49.6615 106.928 49.3854V47.201C106.928 46.9249 107.152 46.701 107.428 46.701ZM221.731 46.701C222.007 46.701 222.231 46.9249 222.231 47.201V49.3854C222.231 49.6615 222.007 49.8854 221.731 49.8854C221.455 49.8854 221.231 49.6615 221.231 49.3854V47.201C221.231 46.9249 221.455 46.701 221.731 46.701ZM135.399 46.8834C135.675 46.8719 135.907 47.0863 135.919 47.3622C135.947 48.0478 135.986 48.722 136.034 49.3848C136.054 49.6602 135.847 49.8997 135.572 49.9198C135.296 49.9398 135.057 49.7328 135.037 49.4574C134.988 48.784 134.949 48.0994 134.92 47.4037C134.908 47.1278 135.123 46.8948 135.399 46.8834ZM183.647 46.8871C183.923 46.8987 184.137 47.1318 184.125 47.4077C184.096 48.1043 184.056 48.7898 184.006 49.464C183.986 49.7394 183.746 49.9461 183.471 49.9258C183.196 49.9054 182.989 49.6656 183.009 49.3902C183.058 48.7268 183.097 48.0519 183.126 47.3655C183.138 47.0896 183.371 46.8754 183.647 46.8871ZM121.102 47.4105C121.378 47.4105 121.602 47.6344 121.602 47.9105V49.8111C121.602 50.0873 121.378 50.3111 121.102 50.3111C120.826 50.3111 120.602 50.0873 120.602 49.8111V47.9105C120.602 47.6344 120.826 47.4105 121.102 47.4105ZM235.405 47.4105C235.681 47.4105 235.905 47.6344 235.905 47.9105V49.8111C235.905 50.0873 235.681 50.3111 235.405 50.3111C235.129 50.3111 234.905 50.0873 234.905 49.8111V47.9105C234.905 47.6344 235.129 47.4105 235.405 47.4105ZM149.859 47.4777C150.135 47.4656 150.368 47.6794 150.38 47.9553C150.417 48.8003 150.468 49.6047 150.533 50.3688C150.556 50.6439 150.351 50.8858 150.076 50.909C149.801 50.9322 149.559 50.728 149.536 50.4528C149.47 49.6742 149.419 48.8562 149.381 47.9992C149.369 47.7233 149.583 47.4898 149.859 47.4777ZM169.188 47.4777C169.463 47.4898 169.677 47.7233 169.665 47.9992C169.628 48.8562 169.576 49.6742 169.51 50.4528C169.487 50.728 169.245 50.9322 168.97 50.909C168.695 50.8858 168.491 50.6439 168.514 50.3688C168.578 49.6047 168.629 48.8003 168.666 47.9553C168.678 47.6794 168.912 47.4656 169.188 47.4777ZM95.8358 48.3443C96.0662 48.4966 96.1294 48.8068 95.977 49.0371L94.945 50.5974C94.7927 50.8277 94.4825 50.8909 94.2522 50.7386C94.0219 50.5863 93.9586 50.2761 94.111 50.0457L95.143 48.4855C95.2953 48.2551 95.6055 48.1919 95.8358 48.3443ZM210.139 48.3443C210.369 48.4966 210.432 48.8068 210.28 49.0371L209.248 50.5974C209.095 50.8277 208.785 50.8909 208.555 50.7386C208.325 50.5863 208.261 50.2761 208.414 50.0457L209.446 48.4855C209.598 48.2551 209.908 48.1919 210.139 48.3443ZM80.6173 49.063C80.8436 49.2213 80.8988 49.533 80.7406 49.7593L79.6083 51.379C79.4501 51.6053 79.1383 51.6605 78.912 51.5023C78.6857 51.3441 78.6305 51.0323 78.7887 50.806L79.9211 49.1863C80.0793 48.96 80.391 48.9048 80.6173 49.063ZM194.92 49.063C195.146 49.2213 195.202 49.533 195.043 49.7593L193.911 51.379C193.753 51.6053 193.441 51.6605 193.215 51.5023C192.988 51.3441 192.933 51.0323 193.091 50.806L194.224 49.1863C194.382 48.96 194.694 48.9048 194.92 49.063ZM135.664 50.9563C135.939 50.9269 136.185 51.1256 136.215 51.4002C136.288 52.0825 136.372 52.7517 136.468 53.4079C136.508 53.6811 136.319 53.9349 136.045 53.9747C135.772 54.0145 135.518 53.8253 135.478 53.552C135.381 52.883 135.295 52.2012 135.221 51.5068C135.191 51.2322 135.39 50.9858 135.664 50.9563ZM183.376 50.9647C183.651 50.9946 183.849 51.2414 183.819 51.516C183.743 52.2111 183.656 52.8936 183.557 53.5633C183.516 53.8365 183.262 54.0251 182.989 53.9847C182.716 53.9442 182.527 53.69 182.568 53.4168C182.665 52.7602 182.751 52.0904 182.825 51.4076C182.855 51.133 183.102 50.9348 183.376 50.9647ZM107.428 51.0698C107.704 51.0698 107.928 51.2937 107.928 51.5698V52.662C107.928 52.9381 107.704 53.162 107.428 53.162H106.525C106.249 53.162 106.025 52.9381 106.025 52.662C106.025 52.3859 106.249 52.162 106.525 52.162H106.928V51.5698C106.928 51.2937 107.152 51.0698 107.428 51.0698ZM221.731 51.0698C222.007 51.0698 222.231 51.2937 222.231 51.5698V52.662C222.231 52.9381 222.007 53.162 221.731 53.162H220.828C220.552 53.162 220.328 52.9381 220.328 52.662C220.328 52.3859 220.552 52.162 220.828 52.162H221.231V51.5698C221.231 51.2937 221.455 51.0698 221.731 51.0698ZM121.102 51.2117C121.378 51.2117 121.602 51.4356 121.602 51.7117V52.162H121.984C122.26 52.162 122.484 52.3859 122.484 52.662C122.484 52.9381 122.26 53.162 121.984 53.162H121.102C120.826 53.162 120.602 52.9381 120.602 52.662V51.7117C120.602 51.4356 120.826 51.2117 121.102 51.2117ZM235.405 51.2117C235.681 51.2117 235.905 51.4356 235.905 51.7117V52.162H236.286C236.562 52.162 236.786 52.3859 236.786 52.662C236.786 52.9381 236.562 53.162 236.286 53.162H235.405C235.129 53.162 234.905 52.9381 234.905 52.662V51.7117C234.905 51.4356 235.129 51.2117 235.405 51.2117ZM93.7718 51.4648C94.0022 51.6172 94.0654 51.9274 93.913 52.1577L93.9097 52.1627C94.1734 52.1766 94.383 52.3948 94.383 52.662C94.383 52.9381 94.1591 53.162 93.883 53.162H92.98C92.7959 53.162 92.6267 53.0609 92.5396 52.8987C92.4524 52.7366 92.4614 52.5397 92.563 52.3862L93.079 51.606C93.2313 51.3757 93.5415 51.3125 93.7718 51.4648ZM208.075 51.4648C208.305 51.6172 208.368 51.9274 208.216 52.1577L208.212 52.1627C208.476 52.1766 208.686 52.3948 208.686 52.662C208.686 52.9381 208.462 53.162 208.186 53.162H207.283C207.099 53.162 206.929 53.0609 206.842 52.8987C206.755 52.7366 206.764 52.5397 206.866 52.3862L207.382 51.606C207.534 51.3757 207.844 51.3125 208.075 51.4648ZM95.189 52.662C95.189 52.3859 95.4129 52.162 95.689 52.162H97.495C97.7711 52.162 97.995 52.3859 97.995 52.662C97.995 52.9381 97.7711 53.162 97.495 53.162H95.689C95.4129 53.162 95.189 52.9381 95.189 52.662ZM98.801 52.662C98.801 52.3859 99.0249 52.162 99.301 52.162H101.107C101.383 52.162 101.607 52.3859 101.607 52.662C101.607 52.9381 101.383 53.162 101.107 53.162H99.301C99.0249 53.162 98.801 52.9381 98.801 52.662ZM102.413 52.662C102.413 52.3859 102.637 52.162 102.913 52.162H104.719C104.995 52.162 105.219 52.3859 105.219 52.662C105.219 52.9381 104.995 53.162 104.719 53.162H102.913C102.637 53.162 102.413 52.9381 102.413 52.662ZM123.247 52.662C123.247 52.3859 123.47 52.162 123.747 52.162H125.51C125.786 52.162 126.01 52.3859 126.01 52.662C126.01 52.9381 125.786 53.162 125.51 53.162H123.747C123.47 53.162 123.247 52.9381 123.247 52.662ZM126.773 52.662C126.773 52.3859 126.996 52.162 127.273 52.162H128.154C128.43 52.162 128.654 52.3859 128.654 52.662V53.7227C128.654 53.9988 128.43 54.2227 128.154 54.2227C127.878 54.2227 127.654 53.9988 127.654 53.7227V53.162H127.273C126.996 53.162 126.773 52.9381 126.773 52.662ZM209.492 52.662C209.492 52.3859 209.716 52.162 209.992 52.162H211.798C212.074 52.162 212.298 52.3859 212.298 52.662C212.298 52.9381 212.074 53.162 211.798 53.162H209.992C209.716 53.162 209.492 52.9381 209.492 52.662ZM213.104 52.662C213.104 52.3859 213.328 52.162 213.604 52.162H215.41C215.686 52.162 215.91 52.3859 215.91 52.662C215.91 52.9381 215.686 53.162 215.41 53.162H213.604C213.328 53.162 213.104 52.9381 213.104 52.662ZM216.716 52.662C216.716 52.3859 216.94 52.162 217.216 52.162H219.022C219.298 52.162 219.522 52.3859 219.522 52.662C219.522 52.9381 219.298 53.162 219.022 53.162H217.216C216.94 53.162 216.716 52.9381 216.716 52.662ZM237.549 52.662C237.549 52.3859 237.773 52.162 238.049 52.162H239.812C240.088 52.162 240.312 52.3859 240.312 52.662C240.312 52.9381 240.088 53.162 239.812 53.162H238.049C237.773 53.162 237.549 52.9381 237.549 52.662ZM241.075 52.662C241.075 52.3859 241.299 52.162 241.575 52.162H242.457C242.733 52.162 242.957 52.3859 242.957 52.662V53.7227C242.957 53.9988 242.733 54.2227 242.457 54.2227C242.181 54.2227 241.957 53.9988 241.957 53.7227V53.162H241.575C241.299 53.162 241.075 52.9381 241.075 52.662ZM78.3527 52.3024C78.579 52.4606 78.6342 52.7723 78.476 52.9987L78 53.6795V54.511C78 54.7871 77.7761 55.011 77.5 55.011C77.2239 55.011 77 54.7871 77 54.511V53.522C77 53.4195 77.0315 53.3195 77.0902 53.2355L77.6564 52.4257C77.8146 52.1994 78.1263 52.1442 78.3527 52.3024ZM192.655 52.3024C192.882 52.4606 192.937 52.7723 192.779 52.9987L192.303 53.6794V54.511C192.303 54.7871 192.079 55.011 191.803 55.011C191.527 55.011 191.303 54.7871 191.303 54.511V53.522C191.303 53.4195 191.334 53.3195 191.393 53.2355L191.959 52.4257C192.117 52.1994 192.429 52.1442 192.655 52.3024ZM150.233 52.339C150.506 52.3006 150.759 52.4911 150.798 52.7646C150.855 53.1744 150.918 53.569 150.985 53.9486C151.036 54.2266 151.092 54.4984 151.154 54.7642C151.216 55.0332 151.049 55.302 150.78 55.3645C150.511 55.4271 150.242 55.2597 150.18 54.9908C150.114 54.7087 150.055 54.4209 150.001 54.1274L150.001 54.1255C149.931 53.7326 149.867 53.3253 149.807 52.9036C149.769 52.6301 149.96 52.3773 150.233 52.339ZM168.813 52.339C169.087 52.3773 169.277 52.6301 169.239 52.9036C169.18 53.3253 169.115 53.7326 169.045 54.1255L169.045 54.1274C168.991 54.4231 168.931 54.713 168.864 54.9971C168.801 55.2659 168.532 55.4325 168.263 55.3691C167.994 55.3058 167.827 55.0366 167.891 54.7678C167.953 54.5015 168.01 54.2291 168.061 53.9505C168.128 53.5704 168.191 53.1751 168.249 52.7646C168.287 52.4911 168.54 52.3006 168.813 52.339ZM136.216 55.0014C136.487 54.9502 136.749 55.1287 136.8 55.4001C136.927 56.0733 137.067 56.7315 137.219 57.3748C137.283 57.6435 137.117 57.9129 136.848 57.9766C136.579 58.0403 136.31 57.8741 136.246 57.6054C136.09 56.9466 135.947 56.2733 135.817 55.5854C135.766 55.3141 135.945 55.0526 136.216 55.0014ZM182.815 55.0134C183.086 55.0654 183.264 55.3274 183.212 55.5986C183.08 56.2869 182.935 56.9607 182.776 57.6199C182.711 57.8883 182.441 58.0535 182.173 57.9888C181.904 57.9241 181.739 57.6541 181.804 57.3856C181.959 56.7422 182.101 56.0838 182.23 55.4103C182.282 55.1391 182.544 54.9614 182.815 55.0134ZM128.154 55.344C128.43 55.344 128.654 55.5679 128.654 55.844V57.9653C128.654 58.2415 128.43 58.4653 128.154 58.4653C127.878 58.4653 127.654 58.2415 127.654 57.9653V55.844C127.654 55.5679 127.878 55.344 128.154 55.344ZM242.457 55.344C242.733 55.344 242.957 55.5679 242.957 55.844V57.9653C242.957 58.2415 242.733 58.4653 242.457 58.4653C242.181 58.4653 241.957 58.2415 241.957 57.9653V55.844C241.957 55.5679 242.181 55.344 242.457 55.344ZM77.5 55.989C77.7761 55.989 78 56.2129 78 56.489V58.467C78 58.7431 77.7761 58.967 77.5 58.967C77.2239 58.967 77 58.7431 77 58.467V56.489C77 56.2129 77.2239 55.989 77.5 55.989ZM191.803 55.989C192.079 55.989 192.303 56.2129 192.303 56.489V58.467C192.303 58.7431 192.079 58.967 191.803 58.967C191.527 58.967 191.303 58.7431 191.303 58.467V56.489C191.303 56.2129 191.527 55.989 191.803 55.989ZM150.978 56.0514C151.238 55.9591 151.524 56.0953 151.616 56.3555C151.805 56.8893 152.022 57.3934 152.266 57.8682C152.392 58.1139 152.295 58.4153 152.049 58.5413C151.803 58.6674 151.502 58.5705 151.376 58.3248C151.111 57.8083 150.877 57.2632 150.674 56.6897C150.581 56.4294 150.718 56.1436 150.978 56.0514ZM168.058 56.0651C168.317 56.1597 168.451 56.4467 168.356 56.7062C168.146 57.2811 167.904 57.8275 167.629 58.345C167.499 58.5887 167.196 58.6811 166.952 58.5513C166.708 58.4216 166.616 58.1188 166.746 57.875C166.998 57.4006 167.222 56.8969 167.417 56.3635C167.511 56.1041 167.798 55.9705 168.058 56.0651ZM137.113 58.9842C137.379 58.9068 137.656 59.059 137.734 59.324C137.925 59.9797 138.131 60.6181 138.352 61.2395C138.444 61.4997 138.308 61.7856 138.048 61.8779C137.787 61.9703 137.501 61.8342 137.409 61.5739C137.182 60.9341 136.97 60.2775 136.774 59.6043C136.696 59.3393 136.848 59.0616 137.113 58.9842ZM181.902 58.9977C182.167 59.0763 182.318 59.3546 182.24 59.6193C182.04 60.2924 181.824 60.9489 181.594 61.5886C181.5 61.8484 181.213 61.983 180.954 61.8893C180.694 61.7956 180.559 61.5091 180.653 61.2493C180.877 60.6283 181.086 59.9901 181.281 59.3348C181.359 59.0701 181.638 58.9192 181.902 58.9977ZM152.421 59.1523C152.645 58.9903 152.958 59.0402 153.12 59.2638C153.278 59.4829 153.445 59.694 153.619 59.8973C153.798 60.0904 153.988 60.2703 154.19 60.4369C154.402 60.613 154.432 60.9282 154.256 61.1409C154.08 61.3536 153.765 61.3833 153.552 61.2072C153.314 61.0102 153.089 60.7976 152.878 60.5697C152.874 60.565 152.87 60.5602 152.866 60.5554C152.671 60.329 152.486 60.094 152.31 59.8505C152.148 59.6269 152.198 59.3143 152.421 59.1523ZM166.563 59.1646C166.784 59.3309 166.828 59.6444 166.661 59.8649C166.479 60.106 166.288 60.3387 166.088 60.563L165.715 60.23L166.089 60.5622C166.089 60.5625 166.088 60.5627 166.088 60.563C165.883 60.7933 165.664 61.008 165.431 61.2069C165.221 61.386 164.905 61.3608 164.726 61.1507C164.547 60.9405 164.572 60.6249 164.782 60.4458C164.981 60.2768 165.167 60.0942 165.341 59.8978L165.342 59.897C165.524 59.6934 165.698 59.4819 165.863 59.2626C166.029 59.0421 166.343 58.9983 166.563 59.1646ZM128.154 59.5867C128.43 59.5867 128.654 59.8105 128.654 60.0867V62.208C128.654 62.4841 128.43 62.708 128.154 62.708C127.878 62.708 127.654 62.4841 127.654 62.208V60.0867C127.654 59.8105 127.878 59.5867 128.154 59.5867ZM242.457 59.5867C242.733 59.5867 242.957 59.8105 242.957 60.0867V62.208C242.957 62.4841 242.733 62.708 242.457 62.708C242.181 62.708 241.957 62.4841 241.957 62.208V60.0867C241.957 59.8105 242.181 59.5867 242.457 59.5867ZM77.5 59.945C77.7761 59.945 78 60.1689 78 60.445V62.423C78 62.6991 77.7761 62.923 77.5 62.923C77.2239 62.923 77 62.6991 77 62.423V60.445C77 60.1689 77.2239 59.945 77.5 59.945ZM191.803 59.945C192.079 59.945 192.303 60.1689 192.303 60.445V62.423C192.303 62.6991 192.079 62.923 191.803 62.923C191.527 62.923 191.303 62.6991 191.303 62.423V60.445C191.303 60.1689 191.527 59.945 191.803 59.945ZM154.873 61.526C154.989 61.2756 155.287 61.1671 155.537 61.2836C156.003 61.5005 156.513 61.6727 157.067 61.7986C157.336 61.8598 157.505 62.1277 157.444 62.397C157.383 62.6662 157.115 62.835 156.846 62.7738C156.228 62.6335 155.651 62.4395 155.115 62.1902C154.865 62.0737 154.756 61.7763 154.873 61.526ZM164.127 61.5311C164.245 61.781 164.138 62.0789 163.888 62.1965C163.359 62.4452 162.787 62.6384 162.174 62.7777C161.904 62.8389 161.637 62.6701 161.575 62.4008C161.514 62.1315 161.683 61.8637 161.952 61.8025C162.502 61.6777 163.005 61.5069 163.462 61.2916C163.712 61.1741 164.01 61.2813 164.127 61.5311ZM158.162 62.4937C158.18 62.2181 158.418 62.0089 158.693 62.0264C158.962 62.0434 159.238 62.052 159.523 62.052C159.805 62.052 160.079 62.0436 160.344 62.0269C160.62 62.0095 160.857 62.2188 160.875 62.4944C160.892 62.77 160.683 63.0075 160.407 63.0249C160.12 63.043 159.825 63.052 159.523 63.052C159.218 63.052 158.92 63.0428 158.63 63.0244C158.354 63.0068 158.145 62.7692 158.162 62.4937ZM138.426 62.8485C138.68 62.7399 138.973 62.8578 139.082 63.1117C139.349 63.7369 139.633 64.3426 139.933 64.929C140.059 65.1748 139.961 65.4761 139.716 65.6019C139.47 65.7277 139.168 65.6304 139.043 65.3846C138.732 64.7771 138.438 64.1504 138.162 63.5047C138.054 63.2508 138.172 62.957 138.426 62.8485ZM180.569 62.86C180.823 62.9701 180.939 63.2646 180.829 63.5178C180.549 64.1625 180.251 64.7882 179.936 65.3947C179.809 65.6397 179.507 65.7351 179.262 65.6077C179.017 65.4803 178.921 65.1784 179.049 64.9334C179.353 64.3481 179.641 63.7435 179.912 63.1195C180.022 62.8662 180.316 62.75 180.569 62.86ZM128.154 63.8293C128.43 63.8293 128.654 64.0532 128.654 64.3293V65.39C128.654 65.6661 128.43 65.89 128.154 65.89H127.273C126.996 65.89 126.773 65.6661 126.773 65.39C126.773 65.1139 126.996 64.89 127.273 64.89H127.654V64.3293C127.654 64.0532 127.878 63.8293 128.154 63.8293ZM242.457 63.8293C242.733 63.8293 242.957 64.0532 242.957 64.3293V65.39C242.957 65.6661 242.733 65.89 242.457 65.89H241.575C241.299 65.89 241.075 65.6661 241.075 65.39C241.075 65.1139 241.299 64.89 241.575 64.89H241.957V64.3293C241.957 64.0532 242.181 63.8293 242.457 63.8293ZM77.5 63.901C77.7761 63.901 78 64.1249 78 64.401V64.89H78.532C78.8082 64.89 79.032 65.1139 79.032 65.39C79.032 65.6661 78.8082 65.89 78.532 65.89H77.5C77.2239 65.89 77 65.6661 77 65.39V64.401C77 64.1249 77.2239 63.901 77.5 63.901ZM191.803 63.901C192.079 63.901 192.303 64.1249 192.303 64.401V64.89H192.835C193.111 64.89 193.335 65.1139 193.335 65.39C193.335 65.6661 193.111 65.89 192.835 65.89H191.803C191.527 65.89 191.303 65.6661 191.303 65.39V64.401C191.303 64.1249 191.527 63.901 191.803 63.901ZM80.096 65.39C80.096 65.1139 80.3199 64.89 80.596 64.89H82.66C82.9361 64.89 83.16 65.1139 83.16 65.39C83.16 65.6661 82.9361 65.89 82.66 65.89H80.596C80.3199 65.89 80.096 65.6661 80.096 65.39ZM84.224 65.39C84.224 65.1139 84.4479 64.89 84.724 64.89H86.788C87.0641 64.89 87.288 65.1139 87.288 65.39C87.288 65.6661 87.0641 65.89 86.788 65.89H84.724C84.4479 65.89 84.224 65.6661 84.224 65.39ZM88.352 65.39C88.352 65.1139 88.5759 64.89 88.852 64.89H90.916C91.1921 64.89 91.416 65.1139 91.416 65.39C91.416 65.6661 91.1921 65.89 90.916 65.89H88.852C88.5759 65.89 88.352 65.6661 88.352 65.39ZM92.48 65.39C92.48 65.1139 92.7039 64.89 92.98 64.89H95.044C95.3201 64.89 95.544 65.1139 95.544 65.39C95.544 65.6661 95.3201 65.89 95.044 65.89H92.98C92.7039 65.89 92.48 65.6661 92.48 65.39ZM96.608 65.39C96.608 65.1139 96.8319 64.89 97.108 64.89H99.172C99.4482 64.89 99.672 65.1139 99.672 65.39C99.672 65.6661 99.4482 65.89 99.172 65.89H97.108C96.8319 65.89 96.608 65.6661 96.608 65.39ZM100.736 65.39C100.736 65.1139 100.96 64.89 101.236 64.89H103.3C103.576 64.89 103.8 65.1139 103.8 65.39C103.8 65.6661 103.576 65.89 103.3 65.89H101.236C100.96 65.89 100.736 65.6661 100.736 65.39ZM104.864 65.39C104.864 65.1139 105.088 64.89 105.364 64.89H106.396C106.672 64.89 106.896 65.1139 106.896 65.39V66.3217C106.896 66.5978 106.672 66.8217 106.396 66.8217C106.12 66.8217 105.896 66.5978 105.896 66.3217V65.89H105.364C105.088 65.89 104.864 65.6661 104.864 65.39ZM120.602 65.39C120.602 65.1139 120.826 64.89 121.102 64.89H121.984C122.26 64.89 122.484 65.1139 122.484 65.39C122.484 65.6661 122.26 65.89 121.984 65.89H121.602V66.3217C121.602 66.5978 121.378 66.8217 121.102 66.8217C120.826 66.8217 120.602 66.5978 120.602 66.3217V65.39ZM123.247 65.39C123.247 65.1139 123.47 64.89 123.747 64.89H125.51C125.786 64.89 126.01 65.1139 126.01 65.39C126.01 65.6661 125.786 65.89 125.51 65.89H123.747C123.47 65.89 123.247 65.6661 123.247 65.39ZM194.399 65.39C194.399 65.1139 194.623 64.89 194.899 64.89H196.963C197.239 64.89 197.463 65.1139 197.463 65.39C197.463 65.6661 197.239 65.89 196.963 65.89H194.899C194.623 65.89 194.399 65.6661 194.399 65.39ZM198.527 65.39C198.527 65.1139 198.751 64.89 199.027 64.89H201.091C201.367 64.89 201.591 65.1139 201.591 65.39C201.591 65.6661 201.367 65.89 201.091 65.89H199.027C198.751 65.89 198.527 65.6661 198.527 65.39ZM202.655 65.39C202.655 65.1139 202.879 64.89 203.155 64.89H205.219C205.495 64.89 205.719 65.1139 205.719 65.39C205.719 65.6661 205.495 65.89 205.219 65.89H203.155C202.879 65.89 202.655 65.6661 202.655 65.39ZM206.783 65.39C206.783 65.1139 207.007 64.89 207.283 64.89H209.347C209.623 64.89 209.847 65.1139 209.847 65.39C209.847 65.6661 209.623 65.89 209.347 65.89H207.283C207.007 65.89 206.783 65.6661 206.783 65.39ZM210.911 65.39C210.911 65.1139 211.135 64.89 211.411 64.89H213.475C213.751 64.89 213.975 65.1139 213.975 65.39C213.975 65.6661 213.751 65.89 213.475 65.89H211.411C211.135 65.89 210.911 65.6661 210.911 65.39ZM215.039 65.39C215.039 65.1139 215.263 64.89 215.539 64.89H217.603C217.879 64.89 218.103 65.1139 218.103 65.39C218.103 65.6661 217.879 65.89 217.603 65.89H215.539C215.263 65.89 215.039 65.6661 215.039 65.39ZM219.167 65.39C219.167 65.1139 219.391 64.89 219.667 64.89H220.699C220.975 64.89 221.199 65.1139 221.199 65.39V66.3217C221.199 66.5978 220.975 66.8217 220.699 66.8217C220.423 66.8217 220.199 66.5978 220.199 66.3217V65.89H219.667C219.391 65.89 219.167 65.6661 219.167 65.39ZM234.905 65.39C234.905 65.1139 235.129 64.89 235.405 64.89H236.286C236.562 64.89 236.786 65.1139 236.786 65.39C236.786 65.6661 236.562 65.89 236.286 65.89H235.905V66.3217C235.905 66.5978 235.681 66.8217 235.405 66.8217C235.129 66.8217 234.905 66.5978 234.905 66.3217V65.39ZM237.549 65.39C237.549 65.1139 237.773 64.89 238.049 64.89H239.812C240.088 64.89 240.312 65.1139 240.312 65.39C240.312 65.6661 240.088 65.89 239.812 65.89H238.049C237.773 65.89 237.549 65.6661 237.549 65.39ZM140.224 66.5113C140.459 66.3674 140.767 66.4418 140.911 66.6775C141.086 66.9632 141.265 67.2436 141.448 67.5188C141.643 67.8068 141.844 68.0872 142.051 68.36C142.218 68.5799 142.175 68.8936 141.955 69.0605C141.735 69.2275 141.421 69.1845 141.254 68.9645C141.036 68.6768 140.824 68.3814 140.619 68.0782L140.617 68.0754C140.426 67.7884 140.239 67.4962 140.058 67.1986C139.914 66.963 139.988 66.6552 140.224 66.5113ZM178.746 66.5159C178.981 66.6614 179.053 66.9696 178.908 67.2043C178.724 67.5 178.536 67.7905 178.343 68.0757C178.141 68.3793 177.931 68.6752 177.716 68.9633C177.55 69.1843 177.237 69.2293 177.016 69.0638C176.795 68.8982 176.75 68.5849 176.915 68.3638C177.12 68.0905 177.319 67.8094 177.511 67.5207L177.513 67.5178C177.699 67.2428 177.881 66.9627 178.058 66.6773C178.203 66.4426 178.511 66.3703 178.746 66.5159ZM106.396 67.685C106.672 67.685 106.896 67.9089 106.896 68.185V70.0483C106.896 70.3245 106.672 70.5483 106.396 70.5483C106.12 70.5483 105.896 70.3245 105.896 70.0483V68.185C105.896 67.9089 106.12 67.685 106.396 67.685ZM121.102 67.685C121.378 67.685 121.602 67.9089 121.602 68.185V70.0483C121.602 70.3245 121.378 70.5483 121.102 70.5483C120.826 70.5483 120.602 70.3245 120.602 70.0483V68.185C120.602 67.9089 120.826 67.685 121.102 67.685ZM220.699 67.685C220.975 67.685 221.199 67.9089 221.199 68.185V70.0483C221.199 70.3245 220.975 70.5483 220.699 70.5483C220.423 70.5483 220.199 70.3245 220.199 70.0483V68.185C220.199 67.9089 220.423 67.685 220.699 67.685ZM235.405 67.685C235.681 67.685 235.905 67.9089 235.905 68.185V70.0483C235.905 70.3245 235.681 70.5483 235.405 70.5483C235.129 70.5483 234.905 70.3245 234.905 70.0483V68.185C234.905 67.9089 235.129 67.685 235.405 67.685ZM142.685 69.9176C142.884 69.7266 143.201 69.7335 143.392 69.9329C143.87 70.4328 144.375 70.9006 144.906 71.3364C145.119 71.5116 145.15 71.8267 144.975 72.0401C144.8 72.2535 144.485 72.2845 144.271 72.1093C143.71 71.648 143.176 71.1531 142.669 70.6246C142.478 70.4251 142.485 70.1086 142.685 69.9176ZM176.295 69.9199C176.495 70.1099 176.504 70.4263 176.314 70.6267C175.812 71.1563 175.281 71.6521 174.723 72.1141C174.51 72.29 174.195 72.2602 174.019 72.0474C173.843 71.8346 173.873 71.5194 174.085 71.3434C174.613 70.9074 175.114 70.4391 175.588 69.9387C175.778 69.7383 176.095 69.7299 176.295 69.9199ZM106.396 71.4117C106.672 71.4117 106.896 71.6355 106.896 71.9117V73.775C106.896 74.0511 106.672 74.275 106.396 74.275C106.12 74.275 105.896 74.0511 105.896 73.775V71.9117C105.896 71.6355 106.12 71.4117 106.396 71.4117ZM121.102 71.4117C121.378 71.4117 121.602 71.6355 121.602 71.9117V73.775C121.602 74.0511 121.378 74.275 121.102 74.275C120.826 74.275 120.602 74.0511 120.602 73.775V71.9117C120.602 71.6355 120.826 71.4117 121.102 71.4117ZM220.699 71.4117C220.975 71.4117 221.199 71.6355 221.199 71.9117V73.775C221.199 74.0511 220.975 74.275 220.699 74.275C220.423 74.275 220.199 74.0511 220.199 73.775V71.9117C220.199 71.6355 220.423 71.4117 220.699 71.4117ZM235.405 71.4117C235.681 71.4117 235.905 71.6355 235.905 71.9117V73.775C235.905 74.0511 235.681 74.275 235.405 74.275C235.129 74.275 234.905 74.0511 234.905 73.775V71.9117C234.905 71.6355 235.129 71.4117 235.405 71.4117ZM145.887 72.701C146.036 72.4682 146.345 72.3998 146.577 72.5483C147.153 72.9153 147.754 73.2515 148.381 73.5568C148.63 73.6777 148.733 73.9769 148.612 74.2252C148.491 74.4735 148.192 74.5768 147.944 74.456C147.283 74.1342 146.648 73.7794 146.04 73.3914C145.807 73.243 145.739 72.9338 145.887 72.701ZM173.114 72.707C173.263 72.9395 173.196 73.2487 172.963 73.3977C172.358 73.7858 171.725 74.1407 171.066 74.4623C170.818 74.5835 170.519 74.4805 170.398 74.2323C170.276 73.9842 170.379 73.6848 170.628 73.5637C171.253 73.2586 171.851 72.9226 172.423 72.5558C172.656 72.4068 172.965 72.4745 173.114 72.707ZM149.65 74.6619C149.744 74.4022 150.03 74.2678 150.29 74.3616C150.929 74.5923 151.59 74.7957 152.276 74.9716C152.543 75.0403 152.705 75.3128 152.636 75.5802C152.567 75.8477 152.295 76.0089 152.027 75.9402C151.312 75.7567 150.62 75.544 149.95 75.3021C149.691 75.2082 149.556 74.9216 149.65 74.6619ZM169.366 74.6672C169.46 74.9268 169.326 75.2135 169.066 75.3074C168.399 75.5489 167.709 75.761 166.996 75.944C166.728 76.0127 166.456 75.8515 166.387 75.584C166.318 75.3166 166.479 75.0441 166.747 74.9754C167.43 74.8 168.09 74.5972 168.726 74.3671C168.986 74.2732 169.272 74.4075 169.366 74.6672ZM106.396 75.1383C106.672 75.1383 106.896 75.3622 106.896 75.6383V76.07H107.315C107.591 76.07 107.815 76.2939 107.815 76.57C107.815 76.8462 107.591 77.07 107.315 77.07H106.396C106.12 77.07 105.896 76.8462 105.896 76.57V75.6383C105.896 75.3622 106.12 75.1383 106.396 75.1383ZM121.102 75.1383C121.378 75.1383 121.602 75.3622 121.602 75.6383V76.57C121.602 76.8462 121.378 77.07 121.102 77.07H120.183C119.907 77.07 119.683 76.8462 119.683 76.57C119.683 76.2939 119.907 76.07 120.183 76.07H120.602V75.6383C120.602 75.3622 120.826 75.1383 121.102 75.1383ZM220.699 75.1383C220.975 75.1383 221.199 75.3622 221.199 75.6383V76.07H221.618C221.894 76.07 222.118 76.2939 222.118 76.57C222.118 76.8462 221.894 77.07 221.618 77.07H220.699C220.423 77.07 220.199 76.8462 220.199 76.57V75.6383C220.199 75.3622 220.423 75.1383 220.699 75.1383ZM235.405 75.1383C235.681 75.1383 235.905 75.3622 235.905 75.6383V76.57C235.905 76.8462 235.681 77.07 235.405 77.07H234.486C234.209 77.07 233.986 76.8462 233.986 76.57C233.986 76.2939 234.209 76.07 234.486 76.07H234.905V75.6383C234.905 75.3622 235.129 75.1383 235.405 75.1383ZM153.738 75.812C153.784 75.5397 154.042 75.3562 154.314 75.402C154.984 75.5149 155.675 75.6046 156.385 75.6709C156.66 75.6966 156.862 75.9403 156.836 76.2152C156.81 76.4902 156.567 76.6923 156.292 76.6666C155.558 76.5981 154.844 76.5053 154.148 76.3881C153.876 76.3423 153.692 76.0843 153.738 75.812ZM165.291 75.8143C165.337 76.0866 165.154 76.3445 164.881 76.3903C164.188 76.5069 163.476 76.5992 162.744 76.6674C162.469 76.693 162.226 76.4909 162.2 76.216C162.174 75.941 162.377 75.6973 162.652 75.6717C163.36 75.6057 164.048 75.5165 164.715 75.4041C164.988 75.3583 165.246 75.5419 165.291 75.8143ZM157.959 76.2823C157.967 76.0063 158.197 75.789 158.473 75.797C158.819 75.807 159.169 75.812 159.523 75.812C159.876 75.812 160.225 75.807 160.57 75.7971C160.846 75.7891 161.076 76.0064 161.084 76.2824C161.092 76.5585 160.874 76.7887 160.598 76.7967C160.244 76.8069 159.886 76.812 159.523 76.812C159.16 76.812 158.8 76.8069 158.445 76.7966C158.168 76.7886 157.951 76.5583 157.959 76.2823ZM108.653 76.57C108.653 76.2939 108.877 76.07 109.153 76.07H110.992C111.268 76.07 111.492 76.2939 111.492 76.57C111.492 76.8462 111.268 77.07 110.992 77.07H109.153C108.877 77.07 108.653 76.8462 108.653 76.57ZM112.33 76.57C112.33 76.2939 112.554 76.07 112.83 76.07H114.668C114.944 76.07 115.168 76.2939 115.168 76.57C115.168 76.8462 114.944 77.07 114.668 77.07H112.83C112.554 77.07 112.33 76.8462 112.33 76.57ZM116.006 76.57C116.006 76.2939 116.23 76.07 116.506 76.07H118.345C118.621 76.07 118.845 76.2939 118.845 76.57C118.845 76.8462 118.621 77.07 118.345 77.07H116.506C116.23 77.07 116.006 76.8462 116.006 76.57ZM222.956 76.57C222.956 76.2939 223.18 76.07 223.456 76.07H225.294C225.571 76.07 225.794 76.2939 225.794 76.57C225.794 76.8462 225.571 77.07 225.294 77.07H223.456C223.18 77.07 222.956 76.8462 222.956 76.57ZM226.633 76.57C226.633 76.2939 226.856 76.07 227.133 76.07H228.971C229.247 76.07 229.471 76.2939 229.471 76.57C229.471 76.8462 229.247 77.07 228.971 77.07H227.133C226.856 77.07 226.633 76.8462 226.633 76.57ZM230.309 76.57C230.309 76.2939 230.533 76.07 230.809 76.07H232.647C232.924 76.07 233.147 76.2939 233.147 76.57C233.147 76.8462 232.924 77.07 232.647 77.07H230.809C230.533 77.07 230.309 76.8462 230.309 76.57Z" fill="#50E3C0"/>
</svg>
