<svg width="320" height="90" viewBox="0 0 320 90" fill="none" xmlns="http://www.w3.org/2000/svg">
<path d="M122.35 26.604H95.518V38.472C96.6647 37.2107 98.27 36.1787 100.334 35.376C102.398 34.5733 104.634 34.172 107.042 34.172C111.342 34.172 114.897 35.1467 117.706 37.096C120.573 39.0453 122.665 41.568 123.984 44.664C125.303 47.76 125.962 51.114 125.962 54.726C125.962 61.434 124.07 66.766 120.286 70.722C116.502 74.6207 111.17 76.57 104.29 76.57C99.7033 76.57 95.7187 75.796 92.336 74.248C88.9533 72.6427 86.3447 70.4353 84.51 67.626C82.6753 64.8167 81.672 61.5773 81.5 57.908H95.862C96.206 59.6853 97.0373 61.176 98.356 62.38C99.6747 63.5267 101.481 64.1 103.774 64.1C106.469 64.1 108.475 63.24 109.794 61.52C111.113 59.8 111.772 57.5067 111.772 54.64C111.772 51.8307 111.084 49.6807 109.708 48.19C108.332 46.6993 106.325 45.954 103.688 45.954C101.739 45.954 100.133 46.4413 98.872 47.416C97.6107 48.3333 96.7793 49.566 96.378 51.114H82.188V13.704H122.35V26.604Z" fill="#C1FBED"/>
<path d="M134.08 44.32C134.08 34.4587 135.972 26.69 139.756 21.014C143.597 15.338 149.76 12.5 158.246 12.5C166.731 12.5 172.866 15.338 176.65 21.014C180.491 26.69 182.412 34.4587 182.412 44.32C182.412 54.296 180.491 62.122 176.65 67.798C172.866 73.474 166.731 76.312 158.246 76.312C149.76 76.312 143.597 73.474 139.756 67.798C135.972 62.122 134.08 54.296 134.08 44.32ZM167.964 44.32C167.964 38.5293 167.333 34.086 166.072 30.99C164.81 27.8367 162.202 26.26 158.246 26.26C154.29 26.26 151.681 27.8367 150.42 30.99C149.158 34.086 148.528 38.5293 148.528 44.32C148.528 48.2187 148.757 51.458 149.216 54.038C149.674 56.5607 150.592 58.6247 151.968 60.23C153.401 61.778 155.494 62.552 158.246 62.552C160.998 62.552 163.062 61.778 164.438 60.23C165.871 58.6247 166.817 56.5607 167.276 54.038C167.734 51.458 167.964 48.2187 167.964 44.32Z" fill="#C1FBED"/>
<path d="M190.181 44.32C190.181 34.4587 192.073 26.69 195.857 21.014C199.698 15.338 205.862 12.5 214.347 12.5C222.832 12.5 228.967 15.338 232.751 21.014C236.592 26.69 238.513 34.4587 238.513 44.32C238.513 54.296 236.592 62.122 232.751 67.798C228.967 73.474 222.832 76.312 214.347 76.312C205.862 76.312 199.698 73.474 195.857 67.798C192.073 62.122 190.181 54.296 190.181 44.32ZM224.065 44.32C224.065 38.5293 223.434 34.086 222.173 30.99C220.912 27.8367 218.303 26.26 214.347 26.26C210.391 26.26 207.782 27.8367 206.521 30.99C205.26 34.086 204.629 38.5293 204.629 44.32C204.629 48.2187 204.858 51.458 205.317 54.038C205.776 56.5607 206.693 58.6247 208.069 60.23C209.502 61.778 211.595 62.552 214.347 62.552C217.099 62.552 219.163 61.778 220.539 60.23C221.972 58.6247 222.919 56.5607 223.377 54.038C223.836 51.458 224.065 48.2187 224.065 44.32Z" fill="#C1FBED"/>
<path fill-rule="evenodd" clip-rule="evenodd" d="M158.246 13C157.891 13 157.542 13.005 157.196 13.015C156.92 13.023 156.69 12.8057 156.682 12.5297C156.674 12.2537 156.891 12.0234 157.167 12.0154C157.522 12.0051 157.882 12 158.246 12C158.608 12 158.967 12.0051 159.321 12.0153C159.597 12.0233 159.814 12.2535 159.806 12.5296C159.798 12.8056 159.568 13.0229 159.292 13.0149C158.947 13.005 158.599 13 158.246 13ZM214.347 13C213.993 13 213.643 13.005 213.297 13.015C213.021 13.023 212.791 12.8057 212.783 12.5297C212.775 12.2537 212.992 12.0234 213.268 12.0154C213.624 12.0051 213.984 12 214.347 12C214.71 12 215.068 12.0051 215.422 12.0153C215.698 12.0233 215.916 12.2535 215.908 12.5296C215.9 12.8056 215.67 13.0229 215.394 13.0149C215.049 13.005 214.7 13 214.347 13ZM160.923 12.5961C160.948 12.3211 161.192 12.119 161.467 12.1446C162.198 12.2128 162.911 12.3051 163.604 12.4217C163.876 12.4675 164.06 12.7254 164.014 12.9977C163.968 13.2701 163.71 13.4537 163.438 13.4079C162.77 13.2955 162.082 13.2063 161.374 13.1403C161.099 13.1147 160.897 12.871 160.923 12.5961ZM217.024 12.5961C217.05 12.3211 217.293 12.119 217.568 12.1446C218.3 12.2128 219.012 12.3051 219.705 12.4217C219.978 12.4675 220.161 12.7254 220.115 12.9977C220.07 13.2701 219.812 13.4537 219.539 13.4079C218.872 13.2955 218.184 13.2063 217.476 13.1403C217.201 13.1147 216.998 12.871 217.024 12.5961ZM155.558 12.5968C155.584 12.8717 155.382 13.1154 155.107 13.1411C154.397 13.2074 153.707 13.2971 153.037 13.41C152.764 13.4559 152.506 13.2723 152.46 13C152.415 12.7277 152.598 12.4697 152.87 12.4239C153.566 12.3067 154.281 12.2139 155.014 12.1454C155.289 12.1198 155.533 12.3218 155.558 12.5968ZM211.66 12.5968C211.686 12.8717 211.484 13.1154 211.209 13.1411C210.499 13.2074 209.808 13.2971 209.138 13.41C208.866 13.4559 208.608 13.2723 208.562 13C208.516 12.7277 208.7 12.4697 208.972 12.4239C209.668 12.3067 210.382 12.2139 211.116 12.1454C211.391 12.1198 211.634 12.3218 211.66 12.5968ZM165.109 13.228C165.178 12.9605 165.45 12.7993 165.718 12.868C166.431 13.051 167.122 13.2632 167.789 13.5046C168.048 13.5985 168.183 13.8852 168.089 14.1449C167.995 14.4045 167.708 14.5389 167.448 14.4449C166.813 14.2148 166.153 14.012 165.469 13.8366C165.202 13.7679 165.041 13.4955 165.109 13.228ZM221.211 13.228C221.28 12.9605 221.552 12.7993 221.82 12.868C222.533 13.051 223.223 13.2632 223.89 13.5046C224.15 13.5985 224.284 13.8852 224.19 14.1449C224.096 14.4045 223.81 14.5389 223.55 14.4449C222.914 14.2148 222.254 14.012 221.571 13.8366C221.303 13.7679 221.142 13.4955 221.211 13.228ZM151.358 13.2318C151.427 13.4992 151.266 13.7717 150.998 13.8404C150.313 14.0163 149.651 14.2197 149.013 14.4504C148.753 14.5443 148.466 14.4098 148.372 14.1501C148.279 13.8904 148.413 13.6038 148.673 13.5099C149.342 13.268 150.035 13.0553 150.75 12.8718C151.017 12.8031 151.29 12.9643 151.358 13.2318ZM207.46 13.2318C207.529 13.4992 207.367 13.7717 207.1 13.8404C206.414 14.0163 205.753 14.2197 205.114 14.4504C204.854 14.5443 204.568 14.4098 204.474 14.1501C204.38 13.8904 204.515 13.6038 204.774 13.5099C205.444 13.268 206.136 13.0553 206.851 12.8718C207.119 12.8031 207.391 12.9643 207.46 13.2318ZM81.688 13.704C81.688 13.4279 81.9119 13.204 82.188 13.204H83.1921C83.4682 13.204 83.6921 13.4279 83.6921 13.704C83.6921 13.9801 83.4682 14.204 83.1921 14.204H82.688V14.7432C82.688 15.0193 82.4641 15.2432 82.188 15.2432C81.9119 15.2432 81.688 15.0193 81.688 14.7432V13.704ZM84.7001 13.704C84.7001 13.4279 84.924 13.204 85.2001 13.204H87.2083C87.4844 13.204 87.7083 13.4279 87.7083 13.704C87.7083 13.9801 87.4844 14.204 87.2083 14.204H85.2001C84.924 14.204 84.7001 13.9801 84.7001 13.704ZM88.7164 13.704C88.7164 13.4279 88.9402 13.204 89.2164 13.204H91.2244C91.5006 13.204 91.7244 13.4279 91.7244 13.704C91.7244 13.9801 91.5006 14.204 91.2244 14.204H89.2164C88.9402 14.204 88.7164 13.9801 88.7164 13.704ZM92.7326 13.704C92.7326 13.4279 92.9564 13.204 93.2326 13.204H95.2407C95.5168 13.204 95.7407 13.4279 95.7407 13.704C95.7407 13.9801 95.5168 14.204 95.2407 14.204H93.2326C92.9564 14.204 92.7326 13.9801 92.7326 13.704ZM96.7487 13.704C96.7487 13.4279 96.9726 13.204 97.2487 13.204H99.2569C99.533 13.204 99.7569 13.4279 99.7569 13.704C99.7569 13.9801 99.533 14.204 99.2569 14.204H97.2487C96.9726 14.204 96.7487 13.9801 96.7487 13.704ZM100.765 13.704C100.765 13.4279 100.989 13.204 101.265 13.204H103.273C103.549 13.204 103.773 13.4279 103.773 13.704C103.773 13.9801 103.549 14.204 103.273 14.204H101.265C100.989 14.204 100.765 13.9801 100.765 13.704ZM104.781 13.704C104.781 13.4279 105.005 13.204 105.281 13.204H107.289C107.565 13.204 107.789 13.4279 107.789 13.704C107.789 13.9801 107.565 14.204 107.289 14.204H105.281C105.005 14.204 104.781 13.9801 104.781 13.704ZM108.797 13.704C108.797 13.4279 109.021 13.204 109.297 13.204H111.305C111.582 13.204 111.805 13.4279 111.805 13.704C111.805 13.9801 111.582 14.204 111.305 14.204H109.297C109.021 14.204 108.797 13.9801 108.797 13.704ZM112.814 13.704C112.814 13.4279 113.037 13.204 113.314 13.204H115.322C115.598 13.204 115.822 13.4279 115.822 13.704C115.822 13.9801 115.598 14.204 115.322 14.204H113.314C113.037 14.204 112.814 13.9801 112.814 13.704ZM116.83 13.704C116.83 13.4279 117.054 13.204 117.33 13.204H119.338C119.614 13.204 119.838 13.4279 119.838 13.704C119.838 13.9801 119.614 14.204 119.338 14.204H117.33C117.054 14.204 116.83 13.9801 116.83 13.704ZM120.846 13.704C120.846 13.4279 121.07 13.204 121.346 13.204H122.35C122.626 13.204 122.85 13.4279 122.85 13.704V14.779C122.85 15.0551 122.626 15.279 122.35 15.279C122.074 15.279 121.85 15.0551 121.85 14.779V14.204H121.346C121.07 14.204 120.846 13.9801 120.846 13.704ZM169.12 14.5797C169.241 14.3315 169.541 14.2286 169.789 14.3497C170.448 14.6714 171.08 15.0262 171.685 15.4143C171.918 15.5633 171.986 15.8726 171.837 16.105C171.688 16.3375 171.378 16.4052 171.146 16.2562C170.574 15.8894 169.975 15.5534 169.35 15.2483C169.102 15.1272 168.999 14.8278 169.12 14.5797ZM225.222 14.5797C225.343 14.3315 225.642 14.2286 225.89 14.3497C226.549 14.6714 227.182 15.0262 227.787 15.4143C228.02 15.5633 228.087 15.8726 227.938 16.105C227.789 16.3375 227.48 16.4052 227.247 16.2562C226.675 15.8894 226.077 15.5534 225.452 15.2483C225.203 15.1272 225.1 14.8278 225.222 14.5797ZM147.335 14.5868C147.455 14.8351 147.352 15.1343 147.104 15.2552C146.477 15.5605 145.875 15.8967 145.3 16.2637C145.067 16.4122 144.758 16.3438 144.609 16.111C144.461 15.8782 144.529 15.5691 144.762 15.4206C145.37 15.0326 146.005 14.6778 146.666 14.356C146.915 14.2352 147.214 14.3385 147.335 14.5868ZM203.436 14.5868C203.557 14.8351 203.454 15.1343 203.205 15.2552C202.578 15.5605 201.977 15.8967 201.401 16.2637C201.169 16.4122 200.86 16.3438 200.711 16.111C200.563 15.8782 200.631 15.5691 200.864 15.4206C201.472 15.0326 202.107 14.6778 202.768 14.356C203.016 14.2352 203.315 14.3385 203.436 14.5868ZM82.188 16.3215C82.4641 16.3215 82.688 16.5454 82.688 16.8215V18.8998C82.688 19.176 82.4641 19.3998 82.188 19.3998C81.9119 19.3998 81.688 19.176 81.688 18.8998V16.8215C81.688 16.5454 81.9119 16.3215 82.188 16.3215ZM122.35 16.429C122.626 16.429 122.85 16.6529 122.85 16.929V19.079C122.85 19.3551 122.626 19.579 122.35 19.579C122.074 19.579 121.85 19.3551 121.85 19.079V16.929C121.85 16.6529 122.074 16.429 122.35 16.429ZM172.741 16.7646C172.917 16.5518 173.232 16.522 173.445 16.6979C174.004 17.1599 174.534 17.6558 175.036 18.1853C175.226 18.3857 175.218 18.7022 175.018 18.8922C174.817 19.0822 174.501 19.0737 174.311 18.8734C173.836 18.3729 173.335 17.9047 172.808 17.4686C172.595 17.2926 172.565 16.9774 172.741 16.7646ZM228.843 16.7646C229.019 16.5518 229.334 16.522 229.547 16.6979C230.105 17.1599 230.636 17.6558 231.138 18.1853C231.328 18.3857 231.319 18.7022 231.119 18.8922C230.919 19.0822 230.602 19.0737 230.412 18.8734C229.938 18.3729 229.437 17.9047 228.909 17.4686C228.697 17.2926 228.667 16.9774 228.843 16.7646ZM143.698 16.7719C143.873 16.9854 143.842 17.3004 143.628 17.4756C143.098 17.9114 142.593 18.3792 142.114 18.8791C141.923 19.0786 141.607 19.0854 141.407 18.8944C141.208 18.7034 141.201 18.3869 141.392 18.1874C141.898 17.6589 142.432 17.164 142.994 16.7028C143.207 16.5275 143.522 16.5585 143.698 16.7719ZM199.799 16.7719C199.974 16.9854 199.943 17.3004 199.73 17.4756C199.199 17.9114 198.694 18.3792 198.216 18.8791C198.025 19.0786 197.708 19.0854 197.509 18.8944C197.309 18.7034 197.302 18.3869 197.493 18.1874C198 17.6589 198.534 17.164 199.095 16.7028C199.309 16.5275 199.624 16.5585 199.799 16.7719ZM175.738 19.7482C175.959 19.5827 176.273 19.6277 176.438 19.8487C176.654 20.1369 176.863 20.4328 177.066 20.7366C177.257 21.0198 177.444 21.3081 177.626 21.6014C177.772 21.836 177.7 22.1442 177.465 22.2899C177.231 22.4356 176.922 22.3635 176.777 22.129C176.601 21.8457 176.42 21.5675 176.236 21.2942L176.234 21.2914C176.041 21.0026 175.842 20.7215 175.638 20.4482C175.472 20.2271 175.517 19.9138 175.738 19.7482ZM231.84 19.7482C232.061 19.5827 232.374 19.6277 232.54 19.8487C232.755 20.1369 232.965 20.4328 233.167 20.7366C233.359 21.0198 233.546 21.3081 233.728 21.6014C233.874 21.836 233.801 22.1442 233.567 22.2899C233.332 22.4356 233.024 22.3635 232.878 22.129C232.702 21.8457 232.522 21.5675 232.337 21.2942L232.335 21.2914C232.143 21.0026 231.944 20.7215 231.739 20.4482C231.574 20.2271 231.619 19.9138 231.84 19.7482ZM140.677 19.7515C140.897 19.9184 140.94 20.2321 140.773 20.452C140.566 20.7247 140.365 21.0051 140.17 21.2931C139.988 21.5666 139.81 21.8452 139.637 22.1288C139.493 22.3643 139.185 22.4385 138.949 22.2944C138.714 22.1504 138.64 21.8426 138.784 21.607C138.964 21.3118 139.15 21.0217 139.34 20.7367L139.342 20.7338C139.547 20.4306 139.758 20.1352 139.977 19.8475C140.144 19.6275 140.457 19.5845 140.677 19.7515ZM196.779 19.7515C196.999 19.9184 197.042 20.2321 196.875 20.452C196.668 20.7247 196.467 21.0051 196.272 21.2931C196.09 21.5666 195.912 21.8452 195.738 22.1288C195.594 22.3643 195.287 22.4385 195.051 22.2944C194.815 22.1504 194.741 21.8426 194.885 21.607C195.066 21.3118 195.251 21.0217 195.441 20.7367L195.443 20.7338C195.648 20.4306 195.86 20.1352 196.078 19.8475C196.245 19.6275 196.559 19.5845 196.779 19.7515ZM82.188 20.4782C82.4641 20.4782 82.688 20.702 82.688 20.9782V23.0565C82.688 23.3326 82.4641 23.5565 82.188 23.5565C81.9119 23.5565 81.688 23.3326 81.688 23.0565V20.9782C81.688 20.702 81.9119 20.4782 82.188 20.4782ZM122.35 20.729C122.626 20.729 122.85 20.9529 122.85 21.229V23.379C122.85 23.6551 122.626 23.879 122.35 23.879C122.074 23.879 121.85 23.6551 121.85 23.379V21.229C121.85 20.9529 122.074 20.729 122.35 20.729ZM177.975 23.1852C178.22 23.0574 178.522 23.1523 178.65 23.397C178.964 23.9993 179.261 24.62 179.54 25.2591C179.651 25.5121 179.535 25.8069 179.282 25.9175C179.029 26.0281 178.735 25.9127 178.624 25.6596C178.354 25.041 178.067 24.4411 177.763 23.8598C177.635 23.615 177.73 23.313 177.975 23.1852ZM234.077 23.1852C234.321 23.0574 234.623 23.1523 234.751 23.397C235.066 23.9993 235.363 24.62 235.642 25.2591C235.752 25.5121 235.637 25.8069 235.384 25.9175C235.131 26.0281 234.836 25.9127 234.726 25.6596C234.455 25.041 234.168 24.4411 233.865 23.8598C233.737 23.615 233.832 23.313 234.077 23.1852ZM138.447 23.191C138.692 23.3172 138.789 23.6186 138.663 23.8642C138.364 24.4465 138.081 25.0475 137.814 25.6673C137.705 25.921 137.411 26.0381 137.157 25.929C136.904 25.8199 136.786 25.5258 136.896 25.2721C137.171 24.632 137.464 24.0103 137.774 23.4071C137.9 23.1615 138.201 23.0647 138.447 23.191ZM194.548 23.191C194.794 23.3172 194.891 23.6186 194.765 23.8642C194.465 24.4465 194.182 25.0475 193.916 25.6673C193.807 25.921 193.513 26.0381 193.259 25.929C193.005 25.8199 192.888 25.5258 192.997 25.2721C193.273 24.632 193.565 24.0103 193.875 23.4071C194.001 23.1615 194.303 23.0647 194.548 23.191ZM82.188 24.6348C82.4641 24.6348 82.688 24.8587 82.688 25.1348V27.2132C82.688 27.4893 82.4641 27.7132 82.188 27.7132C81.9119 27.7132 81.688 27.4893 81.688 27.2132V25.1348C81.688 24.8587 81.9119 24.6348 82.188 24.6348ZM122.35 25.029C122.626 25.029 122.85 25.2529 122.85 25.529V26.604C122.85 26.8801 122.626 27.104 122.35 27.104H121.392C121.116 27.104 120.892 26.8801 120.892 26.604C120.892 26.3279 121.116 26.104 121.392 26.104H121.85V25.529C121.85 25.2529 122.074 25.029 122.35 25.029ZM156.976 25.8162C157.385 25.7787 157.808 25.76 158.246 25.76C158.683 25.76 159.106 25.7787 159.515 25.8162C159.79 25.8415 159.992 26.085 159.967 26.3599C159.942 26.6349 159.698 26.8373 159.423 26.812C159.047 26.7774 158.655 26.76 158.246 26.76C157.837 26.76 157.444 26.7774 157.068 26.812C156.793 26.8373 156.549 26.6349 156.524 26.3599C156.499 26.085 156.701 25.8415 156.976 25.8162ZM213.078 25.8162C213.487 25.7787 213.91 25.76 214.347 25.76C214.785 25.76 215.208 25.7787 215.616 25.8162C215.891 25.8415 216.094 26.085 216.069 26.3599C216.043 26.6349 215.8 26.8373 215.525 26.812C215.149 26.7774 214.756 26.76 214.347 26.76C213.938 26.76 213.546 26.7774 213.169 26.812C212.894 26.8373 212.651 26.6349 212.626 26.3599C212.6 26.085 212.803 25.8415 213.078 25.8162ZM95.018 26.604C95.018 26.3279 95.2419 26.104 95.518 26.104H96.4763C96.7524 26.104 96.9763 26.3279 96.9763 26.604C96.9763 26.8801 96.7524 27.104 96.4763 27.104H96.018V27.593C96.018 27.8691 95.7941 28.093 95.518 28.093C95.2419 28.093 95.018 27.8691 95.018 27.593V26.604ZM97.8929 26.604C97.8929 26.3279 98.1167 26.104 98.3929 26.104H100.309C100.586 26.104 100.809 26.3279 100.809 26.604C100.809 26.8801 100.586 27.104 100.309 27.104H98.3929C98.1167 27.104 97.8929 26.8801 97.8929 26.604ZM101.726 26.604C101.726 26.3279 101.95 26.104 102.226 26.104H104.143C104.419 26.104 104.643 26.3279 104.643 26.604C104.643 26.8801 104.419 27.104 104.143 27.104H102.226C101.95 27.104 101.726 26.8801 101.726 26.604ZM105.559 26.604C105.559 26.3279 105.783 26.104 106.059 26.104H107.976C108.252 26.104 108.476 26.3279 108.476 26.604C108.476 26.8801 108.252 27.104 107.976 27.104H106.059C105.783 27.104 105.559 26.8801 105.559 26.604ZM109.392 26.604C109.392 26.3279 109.616 26.104 109.892 26.104H111.809C112.085 26.104 112.309 26.3279 112.309 26.604C112.309 26.8801 112.085 27.104 111.809 27.104H109.892C109.616 27.104 109.392 26.8801 109.392 26.604ZM113.225 26.604C113.225 26.3279 113.449 26.104 113.725 26.104H115.642C115.918 26.104 116.142 26.3279 116.142 26.604C116.142 26.8801 115.918 27.104 115.642 27.104H113.725C113.449 27.104 113.225 26.8801 113.225 26.604ZM117.059 26.604C117.059 26.3279 117.282 26.104 117.559 26.104H119.475C119.751 26.104 119.975 26.3279 119.975 26.604C119.975 26.8801 119.751 27.104 119.475 27.104H117.559C117.282 27.104 117.059 26.8801 117.059 26.604ZM155.105 26.6532C155.198 26.9131 155.063 27.1995 154.803 27.2928C154.052 27.5625 153.397 27.9332 152.832 28.4029C152.619 28.5794 152.304 28.5503 152.128 28.338C151.951 28.1256 151.98 27.8104 152.193 27.6338C152.853 27.0847 153.612 26.658 154.465 26.3517C154.725 26.2583 155.012 26.3933 155.105 26.6532ZM161.386 26.6532C161.48 26.3933 161.766 26.2583 162.026 26.3517C162.879 26.658 163.638 27.0847 164.299 27.6338C164.511 27.8104 164.54 28.1256 164.364 28.338C164.187 28.5503 163.872 28.5794 163.659 28.4029C163.094 27.9332 162.439 27.5625 161.688 27.2928C161.428 27.1995 161.293 26.9131 161.386 26.6532ZM211.206 26.6532C211.3 26.9131 211.165 27.1995 210.905 27.2928C210.154 27.5625 209.498 27.9332 208.933 28.4029C208.721 28.5794 208.406 28.5503 208.229 28.338C208.053 28.1256 208.082 27.8104 208.294 27.6338C208.955 27.0847 209.714 26.658 210.567 26.3517C210.827 26.2583 211.113 26.3933 211.206 26.6532ZM217.488 26.6532C217.581 26.3933 217.868 26.2583 218.127 26.3517C218.98 26.658 219.74 27.0847 220.4 27.6338C220.613 27.8104 220.642 28.1256 220.465 28.338C220.289 28.5503 219.973 28.5794 219.761 28.4029C219.196 27.9332 218.54 27.5625 217.789 27.2928C217.53 27.1995 217.395 26.9131 217.488 26.6532ZM179.664 26.8743C179.924 26.7799 180.21 26.9137 180.305 27.1732C180.536 27.8084 180.751 28.4598 180.952 29.1275C181.031 29.392 180.881 29.6707 180.616 29.75C180.352 29.8293 180.073 29.6791 179.994 29.4146C179.799 28.7648 179.589 28.1316 179.365 27.515C179.271 27.2555 179.405 26.9686 179.664 26.8743ZM235.766 26.8743C236.025 26.7799 236.312 26.9137 236.406 27.1732C236.637 27.8084 236.853 28.4598 237.053 29.1275C237.132 29.392 236.982 29.6707 236.718 29.75C236.453 29.8293 236.175 29.6791 236.095 29.4146C235.9 28.7648 235.691 28.1316 235.467 27.515C235.372 27.2555 235.506 26.9686 235.766 26.8743ZM136.782 26.8855C137.042 26.9786 137.177 27.2648 137.084 27.5248C136.863 28.1417 136.657 28.7752 136.465 29.4253C136.387 29.6902 136.109 29.8416 135.844 29.7635C135.58 29.6854 135.428 29.4073 135.506 29.1425C135.703 28.4747 135.915 27.8232 136.143 27.1878C136.236 26.9278 136.522 26.7925 136.782 26.8855ZM192.883 26.8855C193.143 26.9786 193.279 27.2648 193.186 27.5248C192.965 28.1417 192.759 28.7752 192.567 29.4253C192.489 29.6902 192.211 29.8416 191.946 29.7635C191.681 29.6854 191.53 29.4073 191.608 29.1425C191.805 28.4747 192.017 27.8232 192.244 27.1878C192.337 26.9278 192.623 26.7925 192.883 26.8855ZM82.188 28.7915C82.4641 28.7915 82.688 29.0154 82.688 29.2915V31.3698C82.688 31.646 82.4641 31.8698 82.188 31.8698C81.9119 31.8698 81.688 31.646 81.688 31.3698V29.2915C81.688 29.0154 81.9119 28.7915 82.188 28.7915ZM95.518 29.071C95.7941 29.071 96.018 29.2949 96.018 29.571V31.549C96.018 31.8251 95.7941 32.049 95.518 32.049C95.2419 32.049 95.018 31.8251 95.018 31.549V29.571C95.018 29.2949 95.2419 29.071 95.518 29.071ZM151.202 29.4556C151.441 29.5937 151.523 29.8995 151.385 30.1386C151.199 30.4595 151.032 30.805 150.884 31.1757L150.883 31.1787C150.75 31.5045 150.624 31.8467 150.505 32.2055C150.418 32.4676 150.135 32.6096 149.873 32.5227C149.611 32.4357 149.469 32.1528 149.556 31.8907C149.681 31.5126 149.815 31.1498 149.956 30.8025M207.303 29.4556C207.542 29.5937 207.624 29.8995 207.486 30.1386C207.301 30.4595 207.134 30.805 206.985 31.1757L206.984 31.1787C206.851 31.5045 206.726 31.8467 206.607 32.2055C206.52 32.4676 206.237 32.6096 205.975 32.5227C205.712 32.4357 205.57 32.1528 205.657 31.8907C205.783 31.5126 205.916 31.1498 206.058 30.8025M165.289 29.4556C165.528 29.3174 165.834 29.3992 165.972 29.6383C166.183 30.0028 166.37 30.3911 166.535 30.8028C166.677 31.1501 166.81 31.5127 166.935 31.8907C167.022 32.1528 166.88 32.4357 166.618 32.5227C166.356 32.6096 166.073 32.4676 165.986 32.2055C165.867 31.8467 165.741 31.5045 165.609 31.1787L165.607 31.1757C165.459 30.805 165.292 30.4595 165.107 30.1386C164.968 29.8995 165.05 29.5937 165.289 29.4556ZM221.391 29.4556C221.63 29.3174 221.936 29.3992 222.074 29.6383C222.285 30.0028 222.472 30.3911 222.637 30.8028C222.778 31.1501 222.912 31.5127 223.037 31.8907C223.124 32.1528 222.982 32.4357 222.72 32.5227C222.458 32.6096 222.175 32.4676 222.088 32.2055C221.969 31.8467 221.843 31.5045 221.71 31.1787L221.709 31.1757C221.561 30.805 221.394 30.4595 221.208 30.1386C221.07 29.8995 221.152 29.5937 221.391 29.4556ZM180.885 30.7447C181.154 30.6794 181.424 30.8439 181.49 31.1122C181.649 31.7667 181.795 32.4355 181.928 33.1184C181.98 33.3895 181.803 33.6519 181.532 33.7045C181.261 33.7572 180.999 33.5801 180.946 33.309C180.816 32.641 180.674 31.9876 180.518 31.3489C180.453 31.0806 180.617 30.8101 180.885 30.7447ZM236.987 30.7447C237.255 30.6794 237.526 30.8439 237.591 31.1122C237.751 31.7667 237.897 32.4355 238.029 33.1184C238.082 33.3895 237.905 33.6519 237.634 33.7045C237.363 33.7572 237.1 33.5801 237.048 33.309C236.918 32.641 236.775 31.9876 236.62 31.3489C236.554 31.0806 236.719 30.8101 236.987 30.7447ZM135.58 30.7569C135.848 30.8213 136.014 31.0911 135.95 31.3597C135.797 31.9982 135.656 32.6514 135.529 33.3192C135.477 33.5904 135.215 33.7683 134.944 33.7166C134.673 33.6648 134.495 33.4029 134.547 33.1317C134.677 32.4491 134.82 31.7807 134.977 31.1266C135.042 30.858 135.311 30.6925 135.58 30.7569ZM191.682 30.7569C191.95 30.8213 192.116 31.0911 192.051 31.3597C191.898 31.9982 191.758 32.6514 191.63 33.3192C191.579 33.5904 191.317 33.7683 191.045 33.7166C190.774 33.6648 190.596 33.4029 190.648 33.1317C190.778 32.4491 190.922 31.7807 191.079 31.1266C191.143 30.858 191.413 30.6925 191.682 30.7569ZM82.188 32.9482C82.4641 32.9482 82.688 33.172 82.688 33.4482V35.5265C82.688 35.8026 82.4641 36.0265 82.188 36.0265C81.9119 36.0265 81.688 35.8026 81.688 35.5265V33.4482C81.688 33.172 81.9119 32.9482 82.188 32.9482ZM95.518 33.027C95.7941 33.027 96.018 33.2509 96.018 33.527V35.505C96.018 35.7811 95.7941 36.005 95.518 36.005C95.2419 36.005 95.018 35.7811 95.018 35.505V33.527C95.018 33.2509 95.2419 33.027 95.518 33.027ZM107.042 34.672C106.761 34.672 106.482 34.6776 106.206 34.6888C105.93 34.7 105.697 34.4854 105.686 34.2095C105.675 33.9336 105.889 33.7008 106.165 33.6896C106.455 33.6779 106.747 33.672 107.042 33.672C107.364 33.672 107.681 33.6774 107.995 33.6881C108.271 33.6975 108.487 33.9289 108.478 34.2049C108.469 34.4809 108.237 34.697 107.961 34.6875C107.659 34.6772 107.353 34.672 107.042 34.672ZM149.544 33.7364C149.814 33.7964 149.984 34.0636 149.924 34.3331C149.771 35.0173 149.638 35.7449 149.524 36.5164C149.484 36.7896 149.23 36.9784 148.957 36.938C148.684 36.8977 148.495 36.6436 148.535 36.3704C148.652 35.5775 148.79 34.8258 148.948 34.1157C149.008 33.8462 149.275 33.6763 149.544 33.7364ZM166.947 33.7364C167.216 33.6763 167.483 33.8462 167.543 34.1157C167.702 34.8258 167.839 35.5775 167.956 36.3704C167.996 36.6436 167.808 36.8977 167.534 36.938C167.261 36.9784 167.007 36.7896 166.967 36.5164C166.853 35.7449 166.72 35.0173 166.567 34.3331C166.507 34.0636 166.677 33.7964 166.947 33.7364ZM205.646 33.7364C205.916 33.7964 206.085 34.0636 206.025 34.3331C205.873 35.0173 205.74 35.7449 205.626 36.5164C205.586 36.7896 205.331 36.9784 205.058 36.938C204.785 36.8977 204.596 36.6436 204.637 36.3704C204.754 35.5775 204.891 34.8258 205.049 34.1157C205.109 33.8462 205.376 33.6763 205.646 33.7364ZM223.048 33.7364C223.318 33.6763 223.585 33.8462 223.645 34.1157C223.803 34.8258 223.941 35.5775 224.058 36.3704C224.098 36.6436 223.909 36.8977 223.636 36.938C223.363 36.9784 223.109 36.7896 223.068 36.5164C222.955 35.7449 222.821 35.0173 222.669 34.3331C222.609 34.0636 222.779 33.7964 223.048 33.7364ZM109.348 34.2663C109.379 33.9918 109.626 33.7941 109.9 33.8246C110.55 33.8969 111.181 33.9949 111.793 34.1188C112.064 34.1736 112.239 34.4374 112.184 34.708C112.129 34.9787 111.866 35.1537 111.595 35.0989C111.013 34.9812 110.411 34.8876 109.79 34.8185C109.515 34.7879 109.317 34.5407 109.348 34.2663ZM104.974 34.2683C105.009 34.5422 104.816 34.7927 104.542 34.8278C103.984 34.8993 103.437 34.9954 102.901 35.116C102.631 35.1766 102.364 35.0073 102.303 34.7379C102.242 34.4685 102.412 34.201 102.681 34.1404C103.248 34.0128 103.826 33.9113 104.415 33.8359C104.688 33.8008 104.939 33.9944 104.974 34.2683ZM113.03 34.9224C113.112 34.6587 113.392 34.5115 113.656 34.5935C114.28 34.7879 114.882 35.0131 115.462 35.2694C115.714 35.3812 115.828 35.6765 115.717 35.929C115.605 36.1815 115.31 36.2957 115.057 36.184C114.514 35.9436 113.948 35.7317 113.359 35.5484C113.095 35.4663 112.948 35.1861 113.03 34.9224ZM101.615 34.9284C101.702 35.1905 101.56 35.4735 101.298 35.5604C101.034 35.6478 100.773 35.7417 100.515 35.842C100.063 36.018 99.6342 36.2047 99.2295 36.4021C98.9813 36.5231 98.682 36.4201 98.5609 36.1719C98.4399 35.9237 98.543 35.6243 98.7912 35.5033C99.2224 35.293 99.6764 35.0953 100.153 34.91C100.427 34.8035 100.703 34.704 100.983 34.6112C101.245 34.5243 101.528 34.6663 101.615 34.9284ZM181.706 34.7193C181.979 34.6783 182.234 34.8665 182.275 35.1396C182.374 35.8048 182.462 36.4825 182.539 37.1726C182.569 37.447 182.371 37.6941 182.097 37.7245C181.822 37.7548 181.575 37.5569 181.545 37.2825C181.47 36.6048 181.383 35.94 181.286 35.288C181.245 35.0149 181.433 34.7603 181.706 34.7193ZM237.807 34.7193C238.081 34.6783 238.335 34.8665 238.376 35.1396C238.476 35.8048 238.564 36.4825 238.64 37.1726C238.671 37.447 238.473 37.6941 238.198 37.7245C237.924 37.7548 237.677 37.5569 237.646 37.2825C237.571 36.6048 237.485 35.94 237.387 35.288C237.346 35.0149 237.534 34.7603 237.807 34.7193ZM134.773 34.7293C135.046 34.7696 135.235 35.0237 135.195 35.2969C135.099 35.9484 135.014 36.6128 134.94 37.2899C134.91 37.5644 134.663 37.7627 134.389 37.7329C134.114 37.703 133.916 37.4562 133.946 37.1817C134.021 36.4924 134.107 35.8154 134.206 35.1509C134.246 34.8777 134.5 34.689 134.773 34.7293ZM190.875 34.7293C191.148 34.7696 191.337 35.0237 191.296 35.2969C191.2 35.9484 191.115 36.6128 191.042 37.2899C191.012 37.5644 190.765 37.7627 190.491 37.7329C190.216 37.703 190.018 37.4562 190.048 37.1817C190.123 36.4924 190.209 35.8154 190.307 35.1509C190.347 34.8777 190.602 34.689 190.875 34.7293ZM116.492 36.3301C116.634 36.0935 116.941 36.017 117.178 36.1594C117.455 36.3259 117.725 36.5008 117.989 36.684C118.345 36.9256 118.688 37.176 119.021 37.4352C119.239 37.605 119.278 37.9192 119.108 38.137C118.938 38.3548 118.624 38.3937 118.406 38.224C118.09 37.9778 117.763 37.7396 117.425 37.5095L117.421 37.5068C117.174 37.3355 116.921 37.172 116.662 37.0163C116.426 36.8739 116.349 36.5667 116.492 36.3301ZM95.9895 37.3161C95.9208 37.122 95.7356 36.983 95.518 36.983C95.2419 36.983 95.018 37.2069 95.018 37.483V38.472C95.018 38.6786 95.145 38.8639 95.3377 38.9384C95.5304 39.0129 95.749 38.9612 95.888 38.8083C96.1855 38.4811 96.5171 38.1687 96.8834 37.8714C97.0979 37.6974 97.1307 37.3825 96.9567 37.1681C96.7827 36.9537 96.4678 36.9209 96.2534 37.0949C96.1637 37.1677 96.0757 37.2414 95.9895 37.3161ZM82.188 37.1048C82.4641 37.1048 82.688 37.3287 82.688 37.6048V39.6832C82.688 39.9593 82.4641 40.1832 82.188 40.1832C81.9119 40.1832 81.688 39.9593 81.688 39.6832V37.6048C81.688 37.3287 81.9119 37.1048 82.188 37.1048ZM148.81 38.1864C149.085 38.2117 149.287 38.4552 149.262 38.7302C149.196 39.443 149.144 40.1862 149.106 40.9598C149.093 41.2356 148.858 41.4482 148.582 41.4346C148.306 41.421 148.094 41.1864 148.107 40.9106C148.146 40.1239 148.199 39.3664 148.266 38.6384C148.291 38.3634 148.535 38.161 148.81 38.1864ZM167.681 38.1864C167.956 38.161 168.2 38.3634 168.225 38.6384C168.292 39.3664 168.345 40.1239 168.384 40.9106C168.397 41.1864 168.185 41.421 167.909 41.4346C167.633 41.4482 167.399 41.2356 167.385 40.9598C167.347 40.1862 167.295 39.443 167.229 38.7302C167.204 38.4552 167.406 38.2117 167.681 38.1864ZM204.911 38.1864C205.186 38.2117 205.389 38.4552 205.363 38.7302C205.298 39.443 205.246 40.1862 205.208 40.9598C205.194 41.2356 204.96 41.4482 204.684 41.4346C204.408 41.421 204.195 41.1864 204.209 40.9106C204.248 40.1239 204.301 39.3664 204.368 38.6384C204.393 38.3634 204.636 38.161 204.911 38.1864ZM223.783 38.1864C224.058 38.161 224.301 38.3634 224.327 38.6384C224.394 39.3664 224.447 40.1239 224.485 40.9106C224.499 41.1864 224.286 41.421 224.011 41.4346C223.735 41.4482 223.5 41.2356 223.487 40.9598C223.448 40.1862 223.397 39.443 223.331 38.7302C223.306 38.4552 223.508 38.2117 223.783 38.1864ZM182.191 38.7496C182.467 38.7289 182.707 38.9354 182.727 39.2107C182.778 39.8805 182.818 40.5613 182.847 41.253C182.859 41.5289 182.645 41.7622 182.369 41.774C182.093 41.7858 181.86 41.5718 181.848 41.2959C181.819 40.6145 181.78 39.9444 181.73 39.2856C181.709 39.0102 181.916 38.7702 182.191 38.7496ZM238.293 38.7496C238.568 38.7289 238.808 38.9354 238.829 39.2107C238.879 39.8805 238.919 40.5613 238.949 41.253C238.961 41.5289 238.747 41.7622 238.471 41.774C238.195 41.7858 237.962 41.5718 237.95 41.2959C237.92 40.6145 237.881 39.9444 237.832 39.2856C237.811 39.0102 238.017 38.7702 238.293 38.7496ZM134.296 38.7556C134.572 38.7759 134.778 39.0156 134.758 39.291C134.709 39.9492 134.671 40.6186 134.642 41.2993C134.63 41.5752 134.397 41.7894 134.121 41.7777C133.845 41.7661 133.631 41.533 133.643 41.2571C133.672 40.5662 133.711 39.8863 133.761 39.2174C133.781 38.942 134.021 38.7352 134.296 38.7556ZM190.398 38.7556C190.673 38.7759 190.88 39.0156 190.86 39.291C190.811 39.9492 190.772 40.6186 190.743 41.2993C190.732 41.5752 190.499 41.7894 190.223 41.7777C189.947 41.7661 189.733 41.533 189.744 41.2571C189.774 40.5662 189.813 39.8863 189.862 39.2174C189.883 38.942 190.122 38.7352 190.398 38.7556ZM120.22 39.1335C120.419 38.9416 120.735 38.9469 120.927 39.1454C121.526 39.7642 122.073 40.421 122.569 41.116C122.73 41.3407 122.678 41.6529 122.453 41.8134C122.228 41.9739 121.916 41.9219 121.755 41.6971C121.288 41.0428 120.773 40.424 120.208 39.8405C120.017 39.642 120.022 39.3254 120.22 39.1335ZM82.188 41.2615C82.4641 41.2615 82.688 41.4854 82.688 41.7615V43.8398C82.688 44.116 82.4641 44.3398 82.188 44.3398C81.9119 44.3398 81.688 44.116 81.688 43.8398V41.7615C81.688 41.4854 81.9119 41.2615 82.188 41.2615ZM148.543 42.6913C148.819 42.6954 149.04 42.9226 149.036 43.1987C149.03 43.5665 149.028 43.9403 149.028 44.32C149.028 44.7319 149.03 45.1363 149.035 45.5332C149.039 45.8094 148.818 46.0361 148.542 46.0397C148.266 46.0433 148.039 45.8223 148.035 45.5462C148.03 45.1448 148.028 44.7361 148.028 44.32C148.028 43.9355 148.03 43.5568 148.036 43.1839C148.04 42.9078 148.267 42.6872 148.543 42.6913ZM167.948 42.6913C168.224 42.6872 168.451 42.9078 168.455 43.1839C168.461 43.5568 168.464 43.9355 168.464 44.32C168.464 44.7361 168.461 45.1448 168.456 45.5462C168.452 45.8223 168.225 46.0433 167.949 46.0397C167.673 46.0361 167.452 45.8094 167.456 45.5332C167.461 45.1363 167.464 44.7319 167.464 44.32C167.464 43.9403 167.461 43.5665 167.455 43.1987C167.451 42.9226 167.672 42.6954 167.948 42.6913ZM204.645 42.6913C204.921 42.6954 205.141 42.9226 205.137 43.1987C205.132 43.5665 205.129 43.9403 205.129 44.32C205.129 44.7319 205.132 45.1363 205.137 45.5332C205.14 45.8094 204.92 46.0361 204.643 46.0397C204.367 46.0433 204.141 45.8223 204.137 45.5462C204.132 45.1448 204.129 44.7361 204.129 44.32C204.129 43.9355 204.132 43.5568 204.137 43.1839C204.142 42.9078 204.369 42.6872 204.645 42.6913ZM224.049 42.6913C224.326 42.6872 224.553 42.9078 224.557 43.1839C224.562 43.5568 224.565 43.9355 224.565 44.32C224.565 44.7361 224.563 45.1448 224.557 45.5462C224.554 45.8223 224.327 46.0433 224.051 46.0397C223.775 46.0361 223.554 45.8094 223.557 45.5332C223.563 45.1363 223.565 44.7319 223.565 44.32C223.565 43.9403 223.562 43.5665 223.557 43.1987C223.553 42.9226 223.773 42.6954 224.049 42.6913ZM182.398 42.8045C182.674 42.8007 182.901 43.0215 182.905 43.2976C182.909 43.6359 182.912 43.9767 182.912 44.32C182.912 44.6656 182.909 45.0087 182.905 45.3493C182.901 45.6254 182.674 45.8462 182.398 45.8425C182.122 45.8388 181.901 45.612 181.905 45.3359C181.909 44.9998 181.912 44.6612 181.912 44.32C181.912 43.9812 181.909 43.645 181.905 43.3113C181.901 43.0352 182.122 42.8083 182.398 42.8045ZM238.499 42.8045C238.776 42.8007 239.002 43.0215 239.006 43.2976C239.011 43.6359 239.013 43.9767 239.013 44.32C239.013 44.6656 239.011 45.0087 239.006 45.3493C239.003 45.6254 238.776 45.8462 238.5 45.8425C238.223 45.8388 238.003 45.612 238.006 45.3359C238.011 44.9998 238.013 44.6612 238.013 44.32C238.013 43.9812 238.011 43.645 238.006 43.3113C238.003 43.0352 238.223 42.8083 238.499 42.8045ZM134.093 42.8057C134.369 42.8094 134.59 43.0363 134.586 43.3124C134.582 43.6457 134.58 43.9816 134.58 44.32C134.58 44.6608 134.582 44.9991 134.586 45.3347C134.59 45.6108 134.369 45.8376 134.093 45.8413C133.817 45.8449 133.59 45.6241 133.586 45.348C133.582 45.0078 133.58 44.6652 133.58 44.32C133.58 43.9772 133.582 43.6368 133.586 43.299C133.59 43.0228 133.817 42.802 134.093 42.8057ZM190.195 42.8057C190.471 42.8094 190.692 43.0363 190.688 43.3124C190.683 43.6457 190.681 43.9816 190.681 44.32C190.681 44.6608 190.683 44.9991 190.688 45.3347C190.691 45.6108 190.471 45.8376 190.194 45.8413C189.918 45.8449 189.692 45.6241 189.688 45.348C189.683 45.0078 189.681 44.6652 189.681 44.32C189.681 43.9772 189.683 43.6368 189.688 43.299C189.692 43.0228 189.919 42.802 190.195 42.8057ZM123.228 43.09C123.474 42.9642 123.775 43.0615 123.901 43.3074C124.094 43.6854 124.275 44.0723 124.444 44.4681C124.559 44.7375 124.669 45.0089 124.774 45.2822C124.873 45.54 124.744 45.8292 124.486 45.9282C124.228 46.0273 123.939 45.8986 123.84 45.6408C123.739 45.3787 123.634 45.1184 123.524 44.8599C123.364 44.4854 123.193 44.1197 123.011 43.7629C122.885 43.5171 122.982 43.2158 123.228 43.09ZM82.188 45.4182C82.4641 45.4182 82.688 45.642 82.688 45.9182V47.9965C82.688 48.2726 82.4641 48.4965 82.188 48.4965C81.9119 48.4965 81.688 48.2726 81.688 47.9965V45.9182C81.688 45.642 81.9119 45.4182 82.188 45.4182ZM102.348 45.5337C102.778 45.4804 103.225 45.454 103.688 45.454C103.981 45.454 104.267 45.4629 104.547 45.4808C104.822 45.4984 105.031 45.736 105.014 46.0116C104.996 46.2872 104.759 46.4963 104.483 46.4787C104.226 46.4623 103.961 46.454 103.688 46.454C103.263 46.454 102.857 46.4782 102.47 46.5261C102.196 46.5601 101.947 46.3654 101.913 46.0914C101.879 45.8174 102.073 45.5677 102.348 45.5337ZM105.663 46.0991C105.725 45.8299 105.993 45.6616 106.262 45.7231C106.856 45.8586 107.411 46.0462 107.926 46.2872C108.176 46.4042 108.284 46.7019 108.167 46.952C108.05 47.2021 107.752 47.31 107.502 47.193C107.057 46.9846 106.57 46.8191 106.039 46.6979C105.77 46.6364 105.602 46.3684 105.663 46.0991ZM100.406 46.5172C100.528 46.7647 100.427 47.0646 100.179 47.1869C99.8221 47.3633 99.4885 47.5715 99.1777 47.8116L99.1661 47.8204C98.8744 48.0325 98.6089 48.2617 98.3689 48.5078C98.1761 48.7055 97.8595 48.7095 97.6618 48.5167C97.4641 48.3239 97.4601 48.0074 97.6529 47.8097C97.9322 47.5233 98.2387 47.2588 98.5719 47.016C98.9342 46.7367 99.3225 46.4947 99.7363 46.2903C99.9839 46.168 100.284 46.2696 100.406 46.5172ZM124.72 46.6103C124.985 46.5299 125.264 46.679 125.344 46.9431C125.514 47.5013 125.664 48.0669 125.795 48.6398C125.857 48.909 125.689 49.1772 125.42 49.2387C125.15 49.3003 124.882 49.132 124.821 48.8628C124.695 48.3125 124.55 47.7696 124.388 47.2341C124.307 46.9699 124.456 46.6906 124.72 46.6103ZM134.121 46.8834C134.397 46.8719 134.63 47.0863 134.641 47.3622C134.67 48.0478 134.708 48.722 134.757 49.3848C134.777 49.6602 134.57 49.8997 134.294 49.9198C134.019 49.9398 133.779 49.7328 133.759 49.4574C133.71 48.784 133.671 48.0994 133.642 47.4037C133.631 47.1278 133.845 46.8948 134.121 46.8834ZM190.223 46.8834C190.499 46.8719 190.731 47.0863 190.743 47.3622C190.771 48.0478 190.81 48.722 190.858 49.3848C190.878 49.6602 190.671 49.8997 190.396 49.9198C190.12 49.9398 189.881 49.7328 189.861 49.4574C189.812 48.784 189.773 48.0994 189.744 47.4037C189.732 47.1278 189.947 46.8948 190.223 46.8834ZM182.369 46.8871C182.645 46.8987 182.859 47.1318 182.848 47.4077C182.818 48.1043 182.779 48.7898 182.729 49.464C182.708 49.7394 182.469 49.9461 182.193 49.9258C181.918 49.9054 181.711 49.6656 181.732 49.3902C181.781 48.7268 181.82 48.0519 181.849 47.3655C181.86 47.0896 182.093 46.8754 182.369 46.8871ZM238.471 46.8871C238.747 46.8987 238.961 47.1318 238.949 47.4077C238.92 48.1043 238.88 48.7898 238.83 49.464C238.81 49.7394 238.57 49.9461 238.295 49.9258C238.019 49.9054 237.813 49.6656 237.833 49.3902C237.882 48.7268 237.921 48.0519 237.95 47.3655C237.962 47.0896 238.195 46.8754 238.471 46.8871ZM108.724 47.3012C108.901 47.0889 109.216 47.0598 109.428 47.2364C109.657 47.4263 109.873 47.6312 110.075 47.8509C110.286 48.0786 110.481 48.3204 110.661 48.5762C110.82 48.802 110.766 49.1139 110.54 49.2728C110.314 49.4318 110.002 49.3776 109.843 49.1518C109.688 48.9317 109.521 48.7242 109.341 48.5291C109.167 48.3415 108.984 48.167 108.789 48.0054C108.577 47.8288 108.548 47.5136 108.724 47.3012ZM148.581 47.4777C148.857 47.4656 149.09 47.6794 149.103 47.9553C149.14 48.8003 149.19 49.6047 149.255 50.3688C149.278 50.6439 149.074 50.8858 148.799 50.909C148.524 50.9322 148.282 50.728 148.258 50.4528C148.193 49.6742 148.141 48.8562 148.104 47.9992C148.091 47.7233 148.305 47.4898 148.581 47.4777ZM167.91 47.4777C168.186 47.4898 168.4 47.7233 168.388 47.9992C168.35 48.8562 168.298 49.6742 168.233 50.4528C168.21 50.728 167.968 50.9322 167.692 50.909C167.417 50.8858 167.213 50.6439 167.236 50.3688C167.301 49.6047 167.352 48.8003 167.389 47.9553C167.401 47.6794 167.634 47.4656 167.91 47.4777ZM204.683 47.4777C204.959 47.4656 205.192 47.6794 205.204 47.9553C205.241 48.8003 205.292 49.6047 205.357 50.3688C205.38 50.6439 205.175 50.8858 204.9 50.909C204.625 50.9322 204.383 50.728 204.36 50.4528C204.294 49.6742 204.243 48.8562 204.205 47.9992C204.193 47.7233 204.407 47.4898 204.683 47.4777ZM224.012 47.4777C224.287 47.4898 224.501 47.7233 224.489 47.9992C224.452 48.8562 224.4 49.6742 224.334 50.4528C224.311 50.728 224.069 50.9322 223.794 50.909C223.519 50.8858 223.315 50.6439 223.338 50.3688C223.402 49.6047 223.453 48.8003 223.49 47.9553C223.502 47.6794 223.736 47.4656 224.012 47.4777ZM96.9487 49.5805C97.2016 49.6913 97.3168 49.9862 97.206 50.2391C97.0683 50.5534 96.9535 50.8867 96.862 51.2395C96.8048 51.46 96.6058 51.614 96.378 51.614H95.4911C95.215 51.614 94.9911 51.3901 94.9911 51.114C94.9911 50.8379 95.215 50.614 95.4911 50.614H96.0008C96.0841 50.3467 96.1805 50.088 96.29 49.8378C96.4009 49.5849 96.6957 49.4697 96.9487 49.5805ZM82.188 49.5748C82.4641 49.5748 82.688 49.7987 82.688 50.0748V50.614H83.0749C83.351 50.614 83.5749 50.8379 83.5749 51.114C83.5749 51.3901 83.351 51.614 83.0749 51.614H82.188C81.9119 51.614 81.688 51.3901 81.688 51.114V50.0748C81.688 49.7987 81.9119 49.5748 82.188 49.5748ZM110.883 49.9242C111.14 49.8229 111.43 49.9489 111.532 50.2058C111.747 50.7502 111.914 51.3348 112.034 51.9585C112.087 52.2296 111.909 52.4919 111.638 52.5443C111.367 52.5967 111.105 52.4194 111.052 52.1483C110.942 51.5791 110.792 51.0544 110.602 50.5728C110.5 50.316 110.626 50.0256 110.883 49.9242ZM125.556 49.9469C125.829 49.9038 126.085 50.09 126.128 50.3628C126.218 50.9358 126.29 51.5157 126.344 52.1025C126.369 52.3775 126.167 52.6208 125.892 52.646C125.617 52.6712 125.373 52.4687 125.348 52.1937C125.296 51.6282 125.227 51.0699 125.14 50.5188C125.097 50.246 125.283 49.99 125.556 49.9469ZM84.3486 51.114C84.3486 50.8379 84.5725 50.614 84.8486 50.614H86.6224C86.8985 50.614 87.1224 50.8379 87.1224 51.114C87.1224 51.3901 86.8985 51.614 86.6224 51.614H84.8486C84.5725 51.614 84.3486 51.3901 84.3486 51.114ZM87.8961 51.114C87.8961 50.8379 88.12 50.614 88.3961 50.614H90.1699C90.446 50.614 90.6699 50.8379 90.6699 51.114C90.6699 51.3901 90.446 51.614 90.1699 51.614H88.3961C88.12 51.614 87.8961 51.3901 87.8961 51.114ZM91.4436 51.114C91.4436 50.8379 91.6675 50.614 91.9436 50.614H93.7174C93.9935 50.614 94.2174 50.8379 94.2174 51.114C94.2174 51.3901 93.9935 51.614 93.7174 51.614H91.9436C91.6675 51.614 91.4436 51.3901 91.4436 51.114ZM134.387 50.9563C134.661 50.9269 134.908 51.1256 134.937 51.4002C135.011 52.0825 135.095 52.7517 135.19 53.4079C135.23 53.6811 135.041 53.9349 134.768 53.9747C134.494 54.0145 134.241 53.8253 134.201 53.552C134.103 52.883 134.018 52.2012 133.943 51.5068C133.914 51.2322 134.112 50.9858 134.387 50.9563ZM190.488 50.9563C190.763 50.9269 191.009 51.1256 191.039 51.4002C191.112 52.0825 191.196 52.7517 191.292 53.4079C191.332 53.6811 191.143 53.9349 190.869 53.9747C190.596 54.0145 190.342 53.8253 190.302 53.552C190.205 52.883 190.119 52.2012 190.045 51.5068C190.015 51.2322 190.214 50.9858 190.488 50.9563ZM182.099 50.9647C182.373 50.9946 182.572 51.2414 182.542 51.516C182.466 52.2111 182.378 52.8936 182.279 53.5633C182.239 53.8365 181.985 54.0251 181.711 53.9847C181.438 53.9442 181.25 53.69 181.29 53.4168C181.387 52.7602 181.473 52.0904 181.548 51.4076C181.578 51.133 181.824 50.9348 182.099 50.9647ZM238.2 50.9647C238.475 50.9946 238.673 51.2414 238.643 51.516C238.567 52.2111 238.48 52.8936 238.381 53.5633C238.34 53.8365 238.086 54.0251 237.813 53.9847C237.54 53.9442 237.351 53.69 237.392 53.4168C237.489 52.7602 237.575 52.0904 237.649 51.4076C237.679 51.133 237.926 50.9348 238.2 50.9647ZM148.955 52.339C149.229 52.3006 149.482 52.4911 149.52 52.7646C149.578 53.1744 149.64 53.569 149.708 53.9486C149.758 54.2266 149.814 54.4984 149.876 54.7642C149.939 55.0332 149.771 55.302 149.502 55.3645C149.233 55.4271 148.965 55.2597 148.902 54.9908C148.836 54.7087 148.777 54.4209 148.724 54.1274L148.723 54.1255C148.653 53.7326 148.589 53.3253 148.53 52.9036C148.491 52.6301 148.682 52.3773 148.955 52.339ZM167.536 52.339C167.809 52.3773 168 52.6301 167.961 52.9036C167.902 53.3253 167.838 53.7326 167.768 54.1255L167.768 54.1274C167.714 54.4231 167.653 54.713 167.587 54.9971C167.523 55.2659 167.254 55.4325 166.985 55.3691C166.716 55.3058 166.55 55.0366 166.613 54.7678C166.676 54.5015 166.733 54.2291 166.783 53.9505C166.851 53.5704 166.914 53.1751 166.971 52.7646C167.01 52.4911 167.262 52.3006 167.536 52.339ZM205.057 52.339C205.33 52.3006 205.583 52.4911 205.622 52.7646C205.679 53.1744 205.742 53.569 205.809 53.9486C205.86 54.2266 205.916 54.4984 205.978 54.7642C206.04 55.0332 205.873 55.302 205.604 55.3645C205.335 55.4271 205.066 55.2597 205.004 54.9908C204.938 54.7087 204.879 54.4209 204.825 54.1274L204.825 54.1255C204.755 53.7326 204.691 53.3253 204.631 52.9036C204.593 52.6301 204.783 52.3773 205.057 52.339ZM223.637 52.339C223.911 52.3773 224.101 52.6301 224.063 52.9036C224.004 53.3253 223.939 53.7326 223.869 54.1255L223.869 54.1274C223.815 54.4231 223.755 54.713 223.688 54.9971C223.625 55.2659 223.356 55.4325 223.087 55.3691C222.818 55.3058 222.651 55.0366 222.715 54.7678C222.777 54.5015 222.834 54.2291 222.885 53.9505C222.952 53.5704 223.015 53.1751 223.073 52.7646C223.111 52.4911 223.364 52.3006 223.637 52.339ZM111.722 53.274C111.998 53.259 112.233 53.4704 112.248 53.7461C112.264 54.0372 112.272 54.3352 112.272 54.64C112.272 54.9588 112.264 55.2712 112.248 55.5772C112.234 55.853 111.999 56.0649 111.723 56.0505C111.447 56.0362 111.235 55.801 111.249 55.5252C111.264 55.2372 111.272 54.9422 111.272 54.64C111.272 54.3523 111.265 54.0725 111.25 53.8004C111.235 53.5246 111.446 53.2889 111.722 53.274ZM125.935 53.3657C126.211 53.3576 126.441 53.5748 126.449 53.8508C126.458 54.1409 126.462 54.4327 126.462 54.726C126.462 55.0982 126.456 55.4663 126.445 55.8305C126.436 56.1065 126.205 56.3232 125.929 56.3145C125.653 56.3058 125.437 56.075 125.445 55.799C125.456 55.4455 125.462 55.0879 125.462 54.726C125.462 54.4424 125.458 54.1605 125.45 53.8803C125.441 53.6042 125.659 53.3739 125.935 53.3657ZM134.939 55.0014C135.21 54.9502 135.471 55.1287 135.523 55.4001C135.649 56.0733 135.789 56.7315 135.942 57.3748C136.005 57.6435 135.839 57.9129 135.57 57.9766C135.302 58.0403 135.032 57.8741 134.969 57.6054C134.812 56.9466 134.67 56.2733 134.54 55.5854C134.489 55.3141 134.667 55.0526 134.939 55.0014ZM191.04 55.0014C191.311 54.9502 191.573 55.1287 191.624 55.4001C191.751 56.0733 191.891 56.7315 192.043 57.3748C192.107 57.6435 191.941 57.9129 191.672 57.9766C191.403 58.0403 191.134 57.8741 191.07 57.6054C190.914 56.9466 190.771 56.2733 190.641 55.5854C190.59 55.3141 190.769 55.0526 191.04 55.0014ZM181.537 55.0134C181.809 55.0654 181.986 55.3274 181.934 55.5986C181.802 56.2869 181.657 56.9607 181.498 57.6199C181.434 57.8883 181.163 58.0535 180.895 57.9888C180.627 57.9241 180.461 57.6541 180.526 57.3856C180.681 56.7422 180.823 56.0838 180.952 55.4103C181.004 55.1391 181.266 54.9614 181.537 55.0134ZM237.639 55.0134C237.91 55.0654 238.088 55.3274 238.036 55.5986C237.904 56.2869 237.759 56.9607 237.6 57.6199C237.535 57.8883 237.265 58.0535 236.997 57.9888C236.728 57.9241 236.563 57.6541 236.628 57.3856C236.783 56.7422 236.925 56.0838 237.054 55.4103C237.106 55.1391 237.368 54.9614 237.639 55.0134ZM149.7 56.0514C149.96 55.9591 150.246 56.0953 150.339 56.3555C150.528 56.8893 150.744 57.3934 150.988 57.8682C151.114 58.1139 151.017 58.4153 150.772 58.5413C150.526 58.6674 150.224 58.5705 150.098 58.3248C149.833 57.8083 149.599 57.2632 149.396 56.6897C149.304 56.4294 149.44 56.1436 149.7 56.0514ZM205.802 56.0514C206.062 55.9591 206.348 56.0953 206.44 56.3555C206.629 56.8893 206.846 57.3934 207.09 57.8682C207.216 58.1139 207.119 58.4153 206.873 58.5413C206.627 58.6674 206.326 58.5705 206.2 58.3248C205.935 57.8083 205.701 57.2632 205.498 56.6897C205.405 56.4294 205.542 56.1436 205.802 56.0514ZM166.78 56.0651C167.04 56.1597 167.173 56.4467 167.079 56.7062C166.869 57.2811 166.626 57.8275 166.351 58.345C166.221 58.5887 165.918 58.6811 165.675 58.5513C165.431 58.4216 165.338 58.1188 165.468 57.875C165.721 57.4006 165.945 56.8969 166.139 56.3635C166.234 56.1041 166.521 55.9705 166.78 56.0651ZM222.882 56.0651C223.141 56.1597 223.275 56.4467 223.18 56.7062C222.97 57.2811 222.728 57.8275 222.452 58.345C222.323 58.5887 222.02 58.6811 221.776 58.5513C221.532 58.4216 221.44 58.1188 221.57 57.875C221.822 57.4006 222.046 56.8969 222.241 56.3635C222.335 56.1041 222.622 55.9705 222.882 56.0651ZM111.633 56.8686C111.905 56.9177 112.085 57.1778 112.036 57.4495C111.919 58.0972 111.758 58.7106 111.552 59.2888C111.46 59.549 111.174 59.6848 110.914 59.5922C110.654 59.4996 110.518 59.2137 110.61 58.9535C110.796 58.4306 110.944 57.8703 111.052 57.2718C111.101 57 111.361 56.8195 111.633 56.8686ZM81.1383 57.5628C81.2326 57.464 81.3633 57.408 81.5 57.408H82.3976C82.6738 57.408 82.8976 57.6319 82.8976 57.908C82.8976 58.1842 82.6738 58.408 82.3976 58.408H82.03C82.0373 58.5133 82.0454 58.6182 82.0541 58.7227C82.0773 58.9978 81.8729 59.2396 81.5978 59.2628C81.3226 59.2859 81.0808 59.0815 81.0577 58.8064C81.0334 58.5173 81.0143 58.2256 81.0005 57.9314C80.9941 57.7949 81.0439 57.6617 81.1383 57.5628ZM83.6929 57.908C83.6929 57.6319 83.9167 57.408 84.1929 57.408H85.9881C86.2643 57.408 86.4881 57.6319 86.4881 57.908C86.4881 58.1842 86.2643 58.408 85.9881 58.408H84.1929C83.9167 58.408 83.6929 58.1842 83.6929 57.908ZM87.2834 57.908C87.2834 57.6319 87.5072 57.408 87.7834 57.408H89.5786C89.8548 57.408 90.0786 57.6319 90.0786 57.908C90.0786 58.1842 89.8548 58.408 89.5786 58.408H87.7834C87.5072 58.408 87.2834 58.1842 87.2834 57.908ZM90.8739 57.908C90.8739 57.6319 91.0977 57.408 91.3739 57.408H93.1691C93.4453 57.408 93.6691 57.6319 93.6691 57.908C93.6691 58.1842 93.4453 58.408 93.1691 58.408H91.3739C91.0977 58.408 90.8739 58.1842 90.8739 57.908ZM94.4644 57.908C94.4644 57.6319 94.6882 57.408 94.9644 57.408H95.862C96.1015 57.408 96.3074 57.5779 96.3529 57.813C96.4327 58.2254 96.5399 58.6198 96.6742 58.9966C96.7669 59.2567 96.6311 59.5427 96.371 59.6354C96.1109 59.7281 95.8249 59.5924 95.7322 59.3322C95.6254 59.0325 95.5343 58.7244 95.4586 58.408H94.9644C94.6882 58.408 94.4644 58.1842 94.4644 57.908ZM125.853 57.4886C126.128 57.5165 126.328 57.7619 126.3 58.0366C126.223 58.7864 126.12 59.5175 125.99 60.2299C125.941 60.5016 125.68 60.6816 125.409 60.632C125.137 60.5824 124.957 60.3219 125.007 60.0503C125.132 59.365 125.231 58.6601 125.305 57.9355C125.333 57.6608 125.578 57.4607 125.853 57.4886ZM135.836 58.9842C136.101 58.9068 136.379 59.059 136.456 59.324C136.647 59.9797 136.853 60.6181 137.074 61.2395C137.166 61.4997 137.03 61.7856 136.77 61.8779C136.51 61.9703 136.224 61.8342 136.132 61.5739C135.904 60.9341 135.693 60.2775 135.496 59.6043C135.419 59.3393 135.571 59.0616 135.836 58.9842ZM191.937 58.9842C192.203 58.9068 192.48 59.059 192.558 59.324C192.749 59.9797 192.955 60.6181 193.176 61.2395C193.268 61.4997 193.132 61.7856 192.872 61.8779C192.611 61.9703 192.325 61.8342 192.233 61.5739C192.006 60.9341 191.794 60.2775 191.598 59.6043C191.52 59.3393 191.672 59.0616 191.937 58.9842ZM180.625 58.9977C180.89 59.0763 181.04 59.3546 180.962 59.6193C180.762 60.2924 180.547 60.9489 180.316 61.5886C180.222 61.8484 179.936 61.983 179.676 61.8893C179.416 61.7956 179.282 61.5091 179.375 61.2493C179.599 60.6283 179.809 59.9901 180.003 59.3348C180.082 59.0701 180.36 58.9192 180.625 58.9977ZM236.726 58.9977C236.991 59.0763 237.142 59.3546 237.063 59.6193C236.864 60.2924 236.648 60.9489 236.418 61.5886C236.324 61.8484 236.037 61.983 235.778 61.8893C235.518 61.7956 235.383 61.5091 235.477 61.2493C235.701 60.6283 235.91 59.9901 236.105 59.3348C236.183 59.0701 236.462 58.9192 236.726 58.9977ZM151.144 59.1523C151.367 58.9903 151.68 59.0402 151.842 59.2638C152.001 59.4829 152.167 59.694 152.341 59.8973C152.52 60.0904 152.711 60.2703 152.912 60.4369C153.125 60.613 153.154 60.9282 152.978 61.1409C152.802 61.3536 152.487 61.3833 152.274 61.2072C152.036 61.0102 151.812 60.7976 151.601 60.5697C151.598 60.5671 151.596 60.5644 151.593 60.5617C151.592 60.5596 151.59 60.5575 151.588 60.5554C151.394 60.329 151.209 60.094 151.032 59.8505C150.87 59.6269 150.92 59.3143 151.144 59.1523ZM207.245 59.1523C207.469 58.9903 207.782 59.0402 207.944 59.2638C208.102 59.4829 208.269 59.694 208.443 59.8973C208.622 60.0904 208.812 60.2703 209.014 60.4369C209.226 60.613 209.256 60.9282 209.08 61.1409C208.904 61.3536 208.588 61.3833 208.376 61.2072C208.138 61.0102 207.913 60.7976 207.702 60.5697L207.697 60.5642C207.695 60.5613 207.692 60.5584 207.69 60.5554C207.495 60.329 207.31 60.094 207.134 59.8505C206.972 59.6269 207.022 59.3143 207.245 59.1523ZM165.286 59.1646C165.506 59.3309 165.55 59.6444 165.384 59.8649C165.202 60.106 165.011 60.3387 164.811 60.563L164.438 60.23L164.811 60.5622C164.811 60.5625 164.811 60.5627 164.811 60.563C164.606 60.7933 164.387 61.008 164.153 61.2069C163.943 61.386 163.628 61.3608 163.448 61.1507C163.269 60.9405 163.294 60.6249 163.505 60.4458C163.703 60.2768 163.889 60.0942 164.064 59.8978L164.065 59.897C164.246 59.6934 164.42 59.4819 164.586 59.2626C164.752 59.0421 165.065 58.9983 165.286 59.1646ZM221.387 59.1646C221.608 59.3309 221.652 59.6444 221.485 59.8649C221.303 60.106 221.112 60.3387 220.912 60.563L220.539 60.23L220.913 60.5622C220.913 60.5625 220.912 60.5627 220.912 60.563C220.707 60.7933 220.488 61.008 220.255 61.2069C220.045 61.386 219.729 61.3608 219.55 61.1507C219.371 60.9405 219.396 60.6249 219.606 60.4458C219.805 60.2768 219.991 60.0942 220.165 59.8978L220.166 59.897C220.348 59.6934 220.522 59.4819 220.687 59.2626C220.853 59.0421 221.167 58.9983 221.387 59.1646ZM81.685 59.9739C81.9575 59.9291 82.2147 60.1137 82.2595 60.3862C82.3512 60.9439 82.465 61.4897 82.6007 62.0237C82.6687 62.2913 82.5068 62.5634 82.2392 62.6314C81.9716 62.6994 81.6995 62.5376 81.6315 62.2699C81.4886 61.7076 81.369 61.1338 81.2728 60.5485C81.2279 60.276 81.4125 60.0188 81.685 59.9739ZM110.565 60.3395C110.802 60.4822 110.878 60.7895 110.735 61.0259C110.567 61.3035 110.386 61.5697 110.191 61.8242C110.003 62.0695 109.801 62.2992 109.586 62.5131C109.39 62.7078 109.074 62.7068 108.879 62.511C108.684 62.3151 108.685 61.9986 108.881 61.8039C109.064 61.6223 109.236 61.4264 109.397 61.2158C109.57 60.991 109.73 60.7554 109.879 60.5091C110.022 60.2727 110.329 60.1968 110.565 60.3395ZM97.1524 61.0407C97.368 60.8682 97.6826 60.9032 97.8551 61.1188C98.1042 61.4302 98.3819 61.7262 98.6887 62.0067C99.0199 62.2941 99.3853 62.5428 99.7861 62.7528C100.031 62.881 100.125 63.1832 99.9969 63.4278C99.8687 63.6724 99.5665 63.7667 99.3219 63.6385C98.8522 63.3924 98.4205 63.0987 98.0279 62.7573L98.0188 62.7494L98.0189 62.7492C97.6732 62.4337 97.3582 62.0984 97.0742 61.7435C96.9017 61.5279 96.9367 61.2132 97.1524 61.0407ZM153.595 61.526C153.712 61.2756 154.009 61.1671 154.259 61.2836C154.726 61.5005 155.235 61.6727 155.79 61.7986C156.059 61.8598 156.228 62.1277 156.166 62.397C156.105 62.6662 155.837 62.835 155.568 62.7738C154.951 62.6335 154.373 62.4395 153.838 62.1902C153.587 62.0737 153.479 61.7763 153.595 61.526ZM209.697 61.526C209.813 61.2756 210.111 61.1671 210.361 61.2836C210.827 61.5005 211.337 61.6727 211.891 61.7986C212.16 61.8598 212.329 62.1277 212.268 62.397C212.207 62.6662 211.939 62.835 211.67 62.7738C211.052 62.6335 210.475 62.4395 209.939 62.1902C209.689 62.0737 209.58 61.7763 209.697 61.526ZM162.85 61.5311C162.967 61.781 162.86 62.0789 162.61 62.1965C162.082 62.4452 161.51 62.6384 160.896 62.7777C160.627 62.8389 160.359 62.6701 160.298 62.4008C160.237 62.1315 160.405 61.8637 160.675 61.8025C161.225 61.6777 161.727 61.5069 162.185 61.2916C162.434 61.1741 162.732 61.2813 162.85 61.5311ZM218.951 61.5311C219.069 61.781 218.962 62.0789 218.712 62.1965C218.183 62.4452 217.611 62.6384 216.998 62.7777C216.728 62.8389 216.461 62.6701 216.399 62.4008C216.338 62.1315 216.507 61.8637 216.776 61.8025C217.326 61.6777 217.829 61.5069 218.286 61.2916C218.536 61.1741 218.834 61.2813 218.951 61.5311ZM125.147 61.7791C125.414 61.8528 125.57 62.1283 125.496 62.3944C125.295 63.1207 125.062 63.8251 124.797 64.5073C124.698 64.7648 124.408 64.8926 124.151 64.7928C123.893 64.693 123.765 64.4034 123.865 64.1459C124.117 63.4956 124.34 62.8228 124.532 62.1275C124.606 61.8613 124.881 61.7054 125.147 61.7791ZM156.885 62.4937C156.902 62.2181 157.14 62.0089 157.416 62.0264C157.684 62.0434 157.961 62.052 158.246 62.052C158.528 62.052 158.801 62.0436 159.067 62.0269C159.342 62.0095 159.58 62.2188 159.597 62.4944C159.615 62.77 159.405 63.0075 159.13 63.0249C158.842 63.043 158.547 63.052 158.246 63.052C157.941 63.052 157.643 63.0428 157.352 63.0244C157.077 63.0068 156.867 62.7692 156.885 62.4937ZM212.986 62.4937C213.004 62.2181 213.242 62.0089 213.517 62.0264C213.786 62.0434 214.062 62.052 214.347 62.052C214.629 62.052 214.903 62.0436 215.168 62.0269C215.444 62.0095 215.681 62.2188 215.699 62.4944C215.716 62.77 215.507 63.0075 215.231 63.0249C214.944 63.043 214.649 63.052 214.347 63.052C214.042 63.052 213.744 63.0428 213.454 63.0244C213.178 63.0068 212.969 62.7692 212.986 62.4937ZM108.315 62.9325C108.448 63.1744 108.36 63.4785 108.118 63.6117C107.599 63.8976 107.035 64.1201 106.427 64.281C106.16 64.3517 105.887 64.1926 105.816 63.9257C105.745 63.6587 105.905 63.385 106.171 63.3143C106.706 63.1728 107.193 62.9794 107.635 62.7359C107.877 62.6026 108.181 62.6906 108.315 62.9325ZM137.148 62.8485C137.402 62.7399 137.696 62.8578 137.804 63.1117C138.072 63.7369 138.355 64.3426 138.655 64.929C138.781 65.1748 138.684 65.4761 138.438 65.6019C138.192 65.7277 137.891 65.6304 137.765 65.3846C137.454 64.7771 137.161 64.1504 136.885 63.5047C136.776 63.2508 136.894 62.957 137.148 62.8485ZM193.25 62.8485C193.504 62.7399 193.797 62.8578 193.906 63.1117C194.173 63.7369 194.457 64.3426 194.757 64.929C194.883 65.1748 194.785 65.4761 194.539 65.6019C194.294 65.7277 193.992 65.6304 193.867 65.3846C193.556 64.7771 193.262 64.1504 192.986 63.5047C192.878 63.2508 192.996 62.957 193.25 62.8485ZM179.292 62.86C179.545 62.9701 179.661 63.2646 179.551 63.5178C179.271 64.1625 178.974 64.7882 178.658 65.3947C178.531 65.6397 178.229 65.7351 177.984 65.6077C177.739 65.4803 177.644 65.1784 177.771 64.9334C178.075 64.3481 178.363 63.7435 178.634 63.1195C178.744 62.8662 179.039 62.75 179.292 62.86ZM235.393 62.86C235.647 62.9701 235.763 63.2646 235.653 63.5178C235.373 64.1625 235.075 64.7882 234.76 65.3947C234.632 65.6397 234.331 65.7351 234.086 65.6077C233.841 65.4803 233.745 65.1784 233.873 64.9334C234.177 64.3481 234.465 63.7435 234.736 63.1195C234.846 62.8662 235.14 62.75 235.393 62.86ZM82.4466 63.3175C82.7069 63.2253 82.9926 63.3617 83.0847 63.622C83.2713 64.1493 83.4813 64.6641 83.7148 65.1666C83.8312 65.417 83.7225 65.7144 83.472 65.8307C83.2216 65.9471 82.9243 65.8384 82.8079 65.588C82.561 65.0565 82.339 64.5124 82.142 63.9556C82.0499 63.6953 82.1863 63.4096 82.4466 63.3175ZM101.828 63.9554C101.862 63.6813 102.111 63.4862 102.385 63.5196C102.823 63.573 103.285 63.6 103.774 63.6C104.054 63.6 104.325 63.5904 104.587 63.5712C104.863 63.5511 105.102 63.758 105.123 64.0334C105.143 64.3088 104.936 64.5484 104.66 64.5685C104.372 64.5896 104.077 64.6 103.774 64.6C103.249 64.6 102.745 64.571 102.264 64.5123C101.99 64.4788 101.795 64.2295 101.828 63.9554ZM123.668 65.866C123.913 65.993 124.009 66.2947 123.882 66.54C123.538 67.2049 123.159 67.8452 122.745 68.4607C122.591 68.6899 122.281 68.751 122.051 68.597C121.822 68.443 121.761 68.1324 121.915 67.9032C122.307 67.3194 122.667 66.7118 122.994 66.0801C123.121 65.8349 123.423 65.7391 123.668 65.866ZM83.8049 66.4655C84.043 66.3256 84.3494 66.4053 84.4892 66.6435C84.6298 66.8829 84.7762 67.1192 84.9286 67.3526C85.0821 67.5875 85.241 67.8181 85.4056 68.0443C85.568 68.2676 85.5186 68.5803 85.2953 68.7428C85.072 68.9052 84.7593 68.8559 84.5969 68.6325C84.4224 68.3927 84.2539 68.1483 84.0914 67.8994C83.9303 67.6528 83.7755 67.4029 83.6268 67.1498C83.487 66.9117 83.5667 66.6053 83.8049 66.4655ZM138.946 66.5113C139.182 66.3674 139.49 66.4418 139.634 66.6775C139.808 66.9632 139.987 67.2436 140.17 67.5188C140.365 67.8068 140.566 68.0872 140.773 68.36C140.94 68.5799 140.897 68.8936 140.677 69.0605C140.457 69.2275 140.144 69.1845 139.977 68.9645C139.758 68.6768 139.547 68.3814 139.342 68.0782L139.34 68.0754C139.148 67.7884 138.962 67.4962 138.78 67.1986C138.636 66.963 138.711 66.6552 138.946 66.5113ZM195.048 66.5113C195.283 66.3674 195.591 66.4418 195.735 66.6775C195.91 66.9632 196.089 67.2436 196.272 67.5188C196.467 67.8068 196.668 68.0872 196.875 68.36C197.042 68.5799 196.999 68.8936 196.779 69.0605C196.559 69.2275 196.245 69.1845 196.078 68.9645C195.86 68.6768 195.648 68.3814 195.443 68.0782L195.441 68.0754C195.25 67.7884 195.063 67.4962 194.882 67.1986C194.738 66.963 194.812 66.6552 195.048 66.5113ZM177.469 66.5159C177.703 66.6614 177.775 66.9696 177.63 67.2043C177.447 67.5 177.258 67.7905 177.065 68.0757C176.863 68.3793 176.654 68.6752 176.438 68.9633C176.273 69.1843 175.959 69.2293 175.738 69.0638C175.517 68.8982 175.472 68.5849 175.638 68.3638C175.842 68.0905 176.041 67.8094 176.234 67.5207L176.236 67.5178C176.422 67.2428 176.603 66.9627 176.78 66.6773C176.926 66.4426 177.234 66.3703 177.469 66.5159ZM233.57 66.5159C233.805 66.6614 233.877 66.9696 233.731 67.2043C233.548 67.5 233.36 67.7905 233.167 68.0757C232.965 68.3793 232.755 68.6752 232.54 68.9633C232.374 69.1843 232.061 69.2293 231.84 69.0638C231.619 68.8982 231.574 68.5849 231.739 68.3638C231.944 68.0905 232.143 67.8094 232.335 67.5207L232.337 67.5178C232.523 67.2428 232.705 66.9627 232.882 66.6773C233.027 66.4426 233.335 66.3703 233.57 66.5159ZM85.7549 69.3117C85.9607 69.1276 86.2768 69.1451 86.4609 69.3509C86.8325 69.7663 87.2263 70.1647 87.6424 70.5462C87.846 70.7328 87.8597 71.0491 87.6731 71.2526C87.4865 71.4562 87.1702 71.4699 86.9667 71.2833C86.5265 70.8798 86.1095 70.4579 85.7156 70.0177C85.5315 69.8119 85.5491 69.4958 85.7549 69.3117ZM121.34 69.5344C121.55 69.7137 121.575 70.0293 121.396 70.2393C121.155 70.5217 120.905 70.7978 120.647 71.0676L120.645 71.0702C120.383 71.3403 120.113 71.6014 119.836 71.8534C119.632 72.0393 119.316 72.0245 119.13 71.8203C118.944 71.6162 118.959 71.2999 119.163 71.114C119.424 70.8764 119.678 70.6302 119.926 70.3754C120.17 70.1195 120.407 69.8577 120.635 69.5902C120.815 69.3801 121.13 69.3552 121.34 69.5344ZM141.407 69.9176C141.607 69.7266 141.923 69.7335 142.114 69.9329C142.593 70.4328 143.098 70.9006 143.628 71.3364C143.842 71.5116 143.873 71.8267 143.698 72.0401C143.522 72.2535 143.207 72.2845 142.994 72.1093C142.432 71.648 141.898 71.1531 141.392 70.6246C141.201 70.4251 141.208 70.1086 141.407 69.9176ZM197.509 69.9176C197.708 69.7266 198.025 69.7335 198.216 69.9329C198.694 70.4328 199.199 70.9006 199.73 71.3364C199.943 71.5116 199.974 71.8267 199.799 72.0401C199.624 72.2535 199.309 72.2845 199.095 72.1093C198.534 71.648 198 71.1531 197.493 70.6246C197.302 70.4251 197.309 70.1086 197.509 69.9176ZM175.018 69.9199C175.218 70.1099 175.226 70.4263 175.036 70.6267C174.534 71.1563 174.004 71.6521 173.445 72.1141C173.232 72.29 172.917 72.2602 172.741 72.0474C172.565 71.8346 172.595 71.5194 172.808 71.3434C173.335 70.9074 173.836 70.4391 174.311 69.9387C174.501 69.7383 174.817 69.7299 175.018 69.9199ZM231.119 69.9199C231.319 70.1099 231.328 70.4263 231.138 70.6267C230.636 71.1563 230.105 71.6521 229.547 72.1141C229.334 72.29 229.019 72.2602 228.843 72.0474C228.667 71.8346 228.697 71.5194 228.909 71.3434C229.437 70.9074 229.938 70.4391 230.412 69.9387C230.602 69.7383 230.919 69.7299 231.119 69.9199ZM88.2354 71.7202C88.402 71.5 88.7156 71.4566 88.9358 71.6232C89.3778 71.9576 89.8407 72.2766 90.3245 72.58C90.5584 72.7267 90.6291 73.0353 90.4824 73.2692C90.3357 73.5032 90.0271 73.5739 89.7932 73.4272C89.2853 73.1087 88.7984 72.7732 88.3324 72.4206C88.1122 72.254 88.0688 71.9404 88.2354 71.7202ZM118.202 72.565C118.361 72.7908 118.307 73.1027 118.081 73.2618C117.472 73.6914 116.833 74.0847 116.167 74.4415C115.923 74.5718 115.62 74.4801 115.49 74.2366C115.359 73.9932 115.451 73.6902 115.695 73.5599C116.326 73.222 116.929 72.8501 117.505 72.4443C117.731 72.2852 118.043 72.3393 118.202 72.565ZM144.609 72.701C144.758 72.4682 145.067 72.3998 145.3 72.5483C145.875 72.9153 146.477 73.2515 147.104 73.5568C147.352 73.6777 147.455 73.9769 147.335 74.2252C147.214 74.4735 146.915 74.5768 146.666 74.456C146.005 74.1342 145.37 73.7794 144.762 73.3914C144.529 73.243 144.461 72.9338 144.609 72.701ZM200.711 72.701C200.86 72.4682 201.169 72.3998 201.401 72.5483C201.977 72.9153 202.578 73.2515 203.205 73.5568C203.454 73.6777 203.557 73.9769 203.436 74.2252C203.315 74.4735 203.016 74.5768 202.768 74.456C202.107 74.1342 201.472 73.7794 200.864 73.3914C200.631 73.243 200.563 72.9338 200.711 72.701ZM171.837 72.707C171.986 72.9395 171.918 73.2487 171.685 73.3977C171.08 73.7858 170.448 74.1407 169.789 74.4623C169.541 74.5835 169.241 74.4805 169.12 74.2323C168.999 73.9842 169.102 73.6848 169.35 73.5637C169.975 73.2586 170.574 72.9226 171.146 72.5558C171.378 72.4068 171.688 72.4745 171.837 72.707ZM227.938 72.707C228.087 72.9395 228.02 73.2487 227.787 73.3977C227.182 73.7858 226.549 74.1407 225.89 74.4623C225.642 74.5835 225.343 74.4805 225.222 74.2323C225.1 73.9842 225.203 73.6848 225.452 73.5637C226.077 73.2586 226.675 72.9226 227.247 72.5558C227.48 72.4068 227.789 72.4745 227.938 72.707ZM91.1174 73.6316C91.245 73.3867 91.5469 73.2915 91.7918 73.4191C92.0389 73.5478 92.2906 73.673 92.547 73.7947C92.8471 73.932 93.1522 74.0631 93.4622 74.188C93.7184 74.2912 93.8424 74.5825 93.7392 74.8386C93.636 75.0948 93.3447 75.2187 93.0885 75.1155C92.7634 74.9845 92.4432 74.8469 92.1279 74.7027L92.1216 74.6997C91.8531 74.5723 91.5892 74.4411 91.3299 74.306C91.085 74.1785 90.9899 73.8765 91.1174 73.6316ZM148.372 74.6619C148.466 74.4022 148.753 74.2678 149.013 74.3616C149.651 74.5923 150.313 74.7957 150.998 74.9716C151.266 75.0403 151.427 75.3128 151.358 75.5802C151.29 75.8477 151.017 76.0089 150.75 75.9402C150.035 75.7567 149.342 75.544 148.673 75.3021C148.413 75.2082 148.279 74.9216 148.372 74.6619ZM204.474 74.6619C204.568 74.4022 204.854 74.2678 205.114 74.3616C205.753 74.5923 206.414 74.7957 207.1 74.9716C207.367 75.0403 207.529 75.3128 207.46 75.5802C207.391 75.8477 207.119 76.0089 206.851 75.9402C206.136 75.7567 205.444 75.544 204.774 75.3021C204.515 75.2082 204.38 74.9216 204.474 74.6619ZM168.089 74.6672C168.183 74.9268 168.048 75.2135 167.789 75.3074C167.122 75.5489 166.431 75.761 165.718 75.944C165.45 76.0127 165.178 75.8515 165.109 75.584C165.041 75.3166 165.202 75.0441 165.469 74.9754C166.153 74.8 166.813 74.5972 167.448 74.3671C167.708 74.2732 167.995 74.4075 168.089 74.6672ZM224.19 74.6672C224.284 74.9268 224.15 75.2135 223.89 75.3074C223.223 75.5489 222.533 75.761 221.82 75.944C221.552 76.0127 221.28 75.8515 221.211 75.584C221.142 75.3166 221.303 75.0441 221.571 74.9754C222.254 74.8 222.914 74.5972 223.55 74.3671C223.81 74.2732 224.096 74.4075 224.19 74.6672ZM114.409 74.7356C114.511 74.9924 114.385 75.2829 114.128 75.3845C113.445 75.6548 112.737 75.8923 112.004 76.0973C111.739 76.1717 111.463 76.0164 111.388 75.7505C111.314 75.4845 111.469 75.2086 111.735 75.1342C112.436 74.9383 113.111 74.7117 113.76 74.4546C114.017 74.353 114.308 74.4788 114.409 74.7356ZM94.7253 75.1855C94.8059 74.9214 95.0853 74.7726 95.3494 74.8531C95.9778 75.0448 96.6245 75.2139 97.2895 75.3604C97.5591 75.4198 97.7296 75.6866 97.6702 75.9563C97.6107 76.226 97.344 76.3964 97.0743 76.337C96.3844 76.185 95.7122 76.0092 95.0577 75.8096C94.7936 75.7291 94.6448 75.4497 94.7253 75.1855ZM152.46 75.812C152.506 75.5397 152.764 75.3562 153.037 75.402C153.707 75.5149 154.397 75.6046 155.107 75.6709C155.382 75.6966 155.584 75.9403 155.558 76.2152C155.533 76.4902 155.289 76.6923 155.014 76.6666C154.281 76.5981 153.566 76.5053 152.87 76.3881C152.598 76.3423 152.415 76.0843 152.46 75.812ZM208.562 75.812C208.608 75.5397 208.866 75.3562 209.138 75.402C209.808 75.5149 210.499 75.6046 211.209 75.6709C211.484 75.6966 211.686 75.9403 211.66 76.2152C211.634 76.4902 211.391 76.6923 211.116 76.6666C210.382 76.5981 209.668 76.5053 208.972 76.3881C208.7 76.3423 208.516 76.0843 208.562 75.812ZM164.014 75.8143C164.06 76.0866 163.876 76.3445 163.604 76.3903C162.911 76.5069 162.198 76.5992 161.467 76.6674C161.192 76.693 160.948 76.4909 160.923 76.216C160.897 75.941 161.099 75.6973 161.374 75.6717C162.082 75.6057 162.77 75.5165 163.438 75.4041C163.71 75.3583 163.968 75.5419 164.014 75.8143ZM220.115 75.8143C220.161 76.0866 219.978 76.3445 219.705 76.3903C219.012 76.5069 218.3 76.5992 217.568 76.6674C217.293 76.693 217.05 76.4909 217.024 76.216C216.998 75.941 217.201 75.6973 217.476 75.6717C218.184 75.6057 218.872 75.5165 219.539 75.4041C219.812 75.3583 220.07 75.5419 220.115 75.8143ZM110.228 76.0159C110.278 76.2875 110.098 76.548 109.826 76.5977C109.111 76.7284 108.376 76.8318 107.62 76.9082C107.345 76.936 107.1 76.7357 107.072 76.461C107.044 76.1862 107.245 75.941 107.519 75.9133C108.25 75.8395 108.959 75.7396 109.647 75.614C109.918 75.5643 110.179 75.7442 110.228 76.0159ZM98.6986 76.1435C98.7387 75.8703 98.9927 75.6813 99.2659 75.7214C99.9167 75.8169 100.583 75.8929 101.266 75.9492C101.541 75.9719 101.746 76.2134 101.723 76.4886C101.701 76.7638 101.459 76.9685 101.184 76.9458C100.481 76.8879 99.7932 76.8095 99.1206 76.7108C98.8474 76.6707 98.6585 76.4167 98.6986 76.1435ZM156.682 76.2823C156.69 76.0063 156.92 75.789 157.196 75.797C157.542 75.807 157.891 75.812 158.246 75.812C158.599 75.812 158.947 75.807 159.292 75.7971C159.568 75.7891 159.798 76.0064 159.806 76.2824C159.814 76.5585 159.597 76.7887 159.321 76.7967C158.967 76.8069 158.608 76.812 158.246 76.812C157.882 76.812 157.522 76.8069 157.167 76.7966C156.891 76.7886 156.674 76.5583 156.682 76.2823ZM212.783 76.2823C212.791 76.0063 213.021 75.789 213.297 75.797C213.643 75.807 213.993 75.812 214.347 75.812C214.7 75.812 215.049 75.807 215.394 75.7971C215.67 75.7891 215.9 76.0064 215.908 76.2824C215.916 76.5585 215.698 76.7887 215.422 76.7967C215.068 76.8069 214.71 76.812 214.347 76.812C213.984 76.812 213.624 76.8069 213.268 76.7966C212.992 76.7886 212.775 76.5583 212.783 76.2823ZM105.885 76.5375C105.894 76.8135 105.677 77.0443 105.401 77.0529C105.035 77.0643 104.665 77.07 104.29 77.07C103.941 77.07 103.596 77.0656 103.254 77.0567C102.978 77.0496 102.76 76.82 102.767 76.544C102.774 76.2679 103.004 76.0499 103.28 76.0571C103.613 76.0657 103.95 76.07 104.29 76.07C104.655 76.07 105.014 76.0645 105.37 76.0534C105.646 76.0448 105.877 76.2615 105.885 76.5375Z" fill="#50E3C0"/>
</svg>
