<svg width="24" height="24" viewBox="0 0 24 24" fill="none" xmlns="http://www.w3.org/2000/svg">
<path d="M14.7921 6.98468C14.0419 6.34839 13.0516 6 12.0012 6C10.9509 6 9.96061 6.35081 9.21038 6.98468C8.43013 7.64516 8 8.53306 8 9.48387V9.66774C8 9.77419 8.09003 9.86129 8.20006 9.86129H9.40044C9.51047 9.86129 9.6005 9.77419 9.6005 9.66774V9.48387C9.6005 8.41694 10.6783 7.54839 12.0012 7.54839C13.3242 7.54839 14.402 8.41694 14.402 9.48387C14.402 10.2363 13.8518 10.9258 12.9991 11.2427C12.4689 11.4387 12.0187 11.7823 11.6961 12.2323C11.3685 12.6919 11.1985 13.2435 11.1985 13.8024V14.3226C11.1985 14.429 11.2885 14.5161 11.3986 14.5161H12.5989C12.709 14.5161 12.799 14.429 12.799 14.3226V13.7734C12.8003 13.5385 12.8747 13.3095 13.0125 13.1161C13.1504 12.9228 13.3453 12.7741 13.5717 12.6895C15.0472 12.1403 16 10.8823 16 9.48387C16.0025 8.53306 15.5724 7.64516 14.7921 6.98468ZM11.0009 17.0323C11.0009 17.2889 11.1063 17.5351 11.2939 17.7166C11.4815 17.898 11.7359 18 12.0012 18C12.2665 18 12.521 17.898 12.7086 17.7166C12.8962 17.5351 13.0016 17.2889 13.0016 17.0323C13.0016 16.7756 12.8962 16.5294 12.7086 16.348C12.521 16.1665 12.2665 16.0645 12.0012 16.0645C11.7359 16.0645 11.4815 16.1665 11.2939 16.348C11.1063 16.5294 11.0009 16.7756 11.0009 17.0323Z" fill="#BBBBBD" stroke="#BBBBBD" stroke-width="0.2"/>
<circle cx="12" cy="12" r="10" stroke="#BBBBBD" stroke-width="2"/>
</svg>
