<svg width="24" height="24" viewBox="0 0 24 24" fill="none" xmlns="http://www.w3.org/2000/svg">
<path fill-rule="evenodd" clip-rule="evenodd" d="M5.99996 9C5.99996 7.34315 7.34311 6 8.99996 6C10.6568 6 12 7.34315 12 9C12 10.6569 10.6568 12 8.99996 12C7.34311 12 5.99996 10.6569 5.99996 9ZM8.99996 4C6.23854 4 3.99996 6.23858 3.99996 9C3.99996 10.4803 4.64326 11.8104 5.66556 12.7259C3.20036 13.8578 1.40956 16.206 1.06161 19.002C0.993407 19.55 1.44768 20 1.99996 20C2.55225 20 2.99123 19.5489 3.08222 19.0042C3.55657 16.1644 6.02551 14 8.99996 14C11.9744 14 14.4434 16.1644 14.9177 19.0042C15.0087 19.5489 15.4477 20 16 20C16.5522 20 17.0065 19.55 16.9383 19.002C16.5904 16.206 14.7996 13.8578 12.3344 12.7259C13.3567 11.8104 14 10.4803 14 9C14 6.23858 11.7614 4 8.99996 4ZM17.2454 14.662C17.3656 14.2621 17.7205 13.9166 18.086 13.6798C18.6361 13.3234 19.0001 12.7042 19.0001 12C19.0001 10.8954 18.1046 10 17.0001 10C16.5 10 16 9.5 16 9C16 8.5 16.5 8 17.0001 8C19.2092 8 21.0001 9.79086 21.0001 12C21.0001 13.0739 20.5769 14.049 19.8881 14.7675C21.4396 15.6406 22.5635 17.1836 22.8676 19.0043C22.9586 19.549 22.5021 20 21.9499 20C21.3976 20 20.9627 19.5454 20.8264 19.0102C20.4808 17.6523 19.4404 16.5718 18.106 16.1696C17.6456 16.0309 17.2519 15.6801 17.1805 15.2046C17.1517 15.0122 17.1777 14.8253 17.2454 14.662Z" fill="#BBBBBD"/>
</svg>
