<svg width="40" height="40" viewBox="0 0 40 40" fill="none" xmlns="http://www.w3.org/2000/svg">
<path fill-rule="evenodd" clip-rule="evenodd" d="M20 6C20.0242 6 20.0483 5.99971 20.0724 5.99914C21.8864 6.00852 23.6816 6.37034 25.358 7.06472C27.0567 7.76834 28.6001 8.79965 29.9002 10.0998C31.2003 11.3999 32.2317 12.9433 32.9353 14.642C33.6297 16.3184 33.9915 18.1136 34.0009 19.9276C34.0003 19.9517 34 19.9758 34 20C34 21.6569 35.3431 23 37 23C38.6569 23 40 21.6569 40 20C40 17.3736 39.4827 14.7728 38.4776 12.3463C37.4725 9.91982 35.9993 7.71504 34.1421 5.85786C32.285 4.00069 30.0802 2.5275 27.6537 1.52241C25.2272 0.517315 22.6264 0 20 0C18.3431 0 17 1.34315 17 3C17 4.65685 18.3431 6 20 6Z" fill="#50E3C0"/>
</svg>
